<svg xmlns="http://www.w3.org/2000/svg" xmlns:xlink="http://www.w3.org/1999/xlink" width="500" zoomAndPan="magnify" viewBox="0 0 375 374.999991" height="500" preserveAspectRatio="xMidYMid meet" version="1.0"><defs><clipPath id="f3557c050b"><path d="M 25.261719 31 L 368 31 L 368 337.246094 L 25.261719 337.246094 Z M 25.261719 31 " clip-rule="nonzero"/></clipPath></defs><g clip-path="url(#f3557c050b)"><path fill="#592e83" d="M 54.738281 127.210938 L 31.035156 127.210938 C 27.988281 127.210938 25.519531 124.742188 25.519531 121.695312 L 25.519531 101.207031 C 25.519531 98.164062 27.988281 95.695312 31.035156 95.695312 L 89.476562 95.695312 C 92.523438 95.695312 94.992188 98.164062 94.992188 101.207031 L 94.992188 121.695312 C 94.992188 124.742188 92.523438 127.210938 89.476562 127.210938 L 65.769531 127.210938 L 65.769531 233.90625 L 93.535156 233.90625 L 93.535156 226.914062 C 93.535156 224.632812 94.9375 222.589844 97.066406 221.769531 C 97.066406 221.769531 109.75 216.886719 109.75 216.886719 C 111.621094 210.109375 114.316406 203.613281 117.789062 197.507812 L 112.261719 185.082031 C 111.335938 183 111.789062 180.558594 113.402344 178.941406 L 131.101562 161.242188 C 132.71875 159.628906 135.160156 159.175781 137.242188 160.101562 C 137.242188 160.101562 149.671875 165.628906 149.667969 165.628906 C 155.773438 162.15625 162.265625 159.464844 169.027344 157.605469 L 173.929688 144.902344 C 174.75 142.777344 176.796875 141.375 179.074219 141.375 L 204.113281 141.375 C 206.394531 141.375 208.441406 142.78125 209.261719 144.910156 L 214.140625 157.609375 C 220.898438 159.464844 227.394531 162.15625 233.496094 165.628906 L 245.921875 160.101562 C 248.003906 159.175781 250.445312 159.628906 252.0625 161.242188 L 269.761719 178.941406 C 271.371094 180.554688 271.828125 182.992188 270.902344 185.078125 C 270.902344 185.078125 265.398438 197.503906 265.398438 197.503906 C 268.871094 203.609375 271.566406 210.109375 273.421875 216.890625 L 286.097656 221.769531 C 288.226562 222.589844 289.628906 224.632812 289.628906 226.914062 L 289.628906 233.90625 C 299.089844 233.90625 317.394531 233.90625 317.394531 233.90625 L 317.394531 127.210938 L 293.6875 127.210938 C 290.640625 127.210938 288.171875 124.742188 288.171875 121.695312 L 288.171875 101.207031 C 288.171875 98.164062 290.640625 95.695312 293.6875 95.695312 L 352.128906 95.695312 C 355.175781 95.695312 357.644531 98.164062 357.644531 101.207031 L 357.644531 121.695312 C 357.644531 124.742188 355.175781 127.210938 352.128906 127.210938 L 328.425781 127.210938 L 328.425781 239.421875 C 328.425781 242.46875 325.953125 244.9375 322.910156 244.9375 L 289.628906 244.9375 L 289.628906 251.953125 C 289.628906 254.234375 288.226562 256.28125 286.097656 257.101562 C 286.097656 257.101562 273.421875 261.980469 273.421875 261.976562 C 271.558594 268.738281 268.855469 275.230469 265.394531 281.332031 L 270.902344 293.765625 C 271.828125 295.851562 271.371094 298.289062 269.761719 299.902344 L 252.0625 317.601562 C 250.449219 319.210938 248.011719 319.667969 245.925781 318.742188 C 245.925781 318.742188 233.503906 313.238281 233.503906 313.238281 C 227.414062 316.710938 220.902344 319.402344 214.136719 321.261719 L 209.261719 333.9375 C 208.441406 336.066406 206.394531 337.46875 204.113281 337.46875 L 179.074219 337.46875 C 176.792969 337.46875 174.75 336.066406 173.929688 333.9375 C 173.929688 333.9375 169.050781 321.261719 169.050781 321.261719 C 162.273438 319.402344 155.773438 316.695312 149.671875 313.234375 L 137.238281 318.742188 C 135.152344 319.667969 132.714844 319.210938 131.101562 317.601562 L 113.402344 299.902344 C 111.789062 298.285156 111.335938 295.84375 112.261719 293.761719 C 112.261719 293.761719 117.785156 281.335938 117.785156 281.335938 C 114.316406 275.25 111.625 268.742188 109.75 261.980469 L 97.066406 257.101562 C 94.9375 256.28125 93.535156 254.234375 93.535156 251.953125 L 93.535156 244.9375 L 60.253906 244.9375 C 57.207031 244.9375 54.738281 242.46875 54.738281 239.421875 Z M 83.960938 106.722656 C 83.960938 106.722656 36.550781 106.722656 36.550781 106.722656 C 36.550781 106.722656 36.550781 116.179688 36.550781 116.179688 C 36.550781 116.179688 83.960938 116.179688 83.960938 116.179688 Z M 204.863281 164.222656 C 204.863281 164.222656 200.324219 152.402344 200.324219 152.402344 L 182.859375 152.402344 L 178.296875 164.230469 C 177.640625 165.925781 176.195312 167.1875 174.425781 167.609375 C 166.828125 169.414062 159.582031 172.417969 152.921875 176.519531 C 151.375 177.476562 149.453125 177.601562 147.789062 176.863281 L 136.222656 171.722656 L 123.882812 184.0625 L 129.023438 195.628906 C 129.765625 197.292969 129.636719 199.214844 128.679688 200.761719 C 124.574219 207.425781 121.570312 214.675781 119.742188 222.304688 C 119.316406 224.066406 118.054688 225.511719 116.359375 226.164062 L 104.5625 230.703125 L 104.5625 248.164062 L 116.359375 252.707031 C 118.050781 253.355469 119.316406 254.796875 119.742188 256.5625 C 121.570312 264.164062 124.570312 271.433594 128.675781 278.074219 C 129.632812 279.625 129.765625 281.546875 129.023438 283.214844 L 123.882812 294.78125 L 136.226562 307.125 L 147.796875 302 C 149.453125 301.265625 151.367188 301.394531 152.910156 302.339844 C 159.574219 306.421875 166.824219 309.453125 174.449219 311.257812 C 176.21875 311.679688 177.667969 312.945312 178.324219 314.644531 L 182.863281 326.441406 L 200.328125 326.441406 L 204.867188 314.644531 C 205.519531 312.945312 206.96875 311.679688 208.738281 311.257812 C 216.332031 309.453125 223.601562 306.453125 230.234375 302.351562 C 231.78125 301.394531 233.703125 301.261719 235.367188 302 L 246.9375 307.125 L 259.285156 294.777344 L 254.160156 283.207031 C 253.429688 281.550781 253.554688 279.636719 254.5 278.089844 C 258.585938 271.429688 261.613281 264.179688 263.417969 256.578125 C 263.839844 254.808594 265.105469 253.359375 266.804688 252.707031 L 278.601562 248.164062 L 278.601562 230.703125 L 266.804688 226.164062 C 265.105469 225.507812 263.839844 224.058594 263.417969 222.289062 C 261.613281 214.667969 258.613281 207.421875 254.507812 200.761719 C 253.554688 199.214844 253.425781 197.296875 254.160156 195.636719 L 259.285156 184.066406 L 246.941406 171.722656 L 235.375 176.863281 C 233.710938 177.601562 231.789062 177.476562 230.238281 176.519531 C 223.582031 172.417969 216.335938 169.414062 208.738281 167.609375 C 206.96875 167.1875 205.519531 165.921875 204.863281 164.222656 Z M 191.582031 190.238281 C 218.757812 190.238281 240.792969 212.246094 240.792969 239.421875 C 240.792969 266.597656 218.757812 288.632812 191.582031 288.632812 C 164.40625 288.632812 142.398438 266.597656 142.398438 239.421875 C 142.398438 212.246094 164.40625 190.238281 191.582031 190.238281 Z M 191.582031 201.269531 C 170.5 201.269531 153.425781 218.339844 153.425781 239.421875 C 153.425781 260.503906 170.5 277.601562 191.582031 277.601562 C 212.664062 277.601562 229.761719 260.503906 229.761719 239.421875 C 229.761719 218.339844 212.664062 201.269531 191.582031 201.269531 Z M 346.613281 106.722656 C 346.613281 106.722656 299.203125 106.722656 299.203125 106.722656 C 299.203125 106.722656 299.203125 116.179688 299.203125 116.179688 C 299.203125 116.179688 346.613281 116.179688 346.613281 116.179688 Z M 308.125 66.941406 C 305.972656 64.789062 305.972656 61.292969 308.125 59.140625 C 310.277344 56.988281 313.773438 56.988281 315.925781 59.140625 L 323.726562 66.945312 L 358.054688 32.617188 C 360.207031 30.464844 363.699219 30.464844 365.851562 32.617188 C 368.003906 34.769531 368.003906 38.265625 365.851562 40.417969 L 327.628906 78.644531 C 325.472656 80.796875 321.980469 80.796875 319.828125 78.644531 Z M 60.253906 47.832031 L 73.953125 34.132812 C 76.105469 31.980469 79.601562 31.980469 81.753906 34.132812 C 83.90625 36.285156 83.90625 39.78125 81.753906 41.933594 L 68.054688 55.628906 L 81.753906 69.328125 C 83.90625 71.480469 83.90625 74.976562 81.753906 77.128906 C 79.601562 79.28125 76.105469 79.28125 73.953125 77.128906 L 60.253906 63.429688 L 46.558594 77.128906 C 44.40625 79.28125 40.910156 79.28125 38.757812 77.128906 C 36.605469 74.976562 36.605469 71.480469 38.757812 69.328125 L 52.457031 55.628906 L 38.757812 41.933594 C 36.605469 39.78125 36.605469 36.285156 38.757812 34.132812 C 40.910156 31.980469 44.40625 31.980469 46.558594 34.132812 Z M 60.253906 47.832031 " fill-opacity="1" fill-rule="evenodd"/></g></svg>