<svg xmlns="http://www.w3.org/2000/svg" xmlns:xlink="http://www.w3.org/1999/xlink" width="500" zoomAndPan="magnify" viewBox="0 0 375 374.999991" height="500" preserveAspectRatio="xMidYMid meet" version="1.0"><defs><clipPath id="813eba2309"><path d="M 56.648438 37 L 318.398438 37 L 318.398438 350.554688 L 56.648438 350.554688 Z M 56.648438 37 " clip-rule="nonzero"/></clipPath></defs><g clip-path="url(#813eba2309)"><path fill="#592e83" d="M 187.496094 350.316406 C 185.859375 350.316406 184.304688 349.664062 183.160156 348.519531 L 94.960938 260.320312 C 70.265625 235.621094 56.648438 202.746094 56.648438 167.828125 C 56.648438 132.910156 70.265625 99.992188 94.960938 75.296875 C 145.992188 24.265625 228.996094 24.265625 279.984375 75.296875 C 304.683594 99.992188 318.300781 132.867188 318.300781 167.828125 C 318.300781 202.789062 304.683594 235.621094 279.984375 260.359375 L 191.789062 348.558594 C 190.644531 349.703125 189.089844 350.359375 187.453125 350.359375 Z M 187.496094 49.289062 C 157.113281 49.289062 126.773438 60.863281 103.628906 83.964844 C 80.488281 107.066406 68.914062 136.140625 68.914062 167.828125 C 68.914062 199.515625 81.265625 229.285156 103.628906 251.691406 L 187.496094 335.554688 L 271.359375 251.691406 C 293.765625 229.285156 306.074219 199.515625 306.074219 167.828125 C 306.074219 136.140625 293.722656 106.371094 271.359375 83.964844 C 248.992188 61.558594 217.875 49.289062 187.496094 49.289062 Z M 275.691406 255.984375 Z M 275.691406 255.984375 " fill-opacity="1" fill-rule="nonzero"/></g><path fill="#592e83" d="M 187.496094 225.277344 C 154.78125 225.277344 128.164062 198.660156 128.164062 165.945312 C 128.164062 133.234375 154.78125 106.617188 187.496094 106.617188 C 220.207031 106.617188 246.824219 133.234375 246.824219 165.945312 C 246.824219 198.660156 220.207031 225.277344 187.496094 225.277344 Z M 187.496094 118.925781 C 161.570312 118.925781 140.429688 140.023438 140.429688 165.988281 C 140.429688 191.953125 161.53125 213.050781 187.496094 213.050781 C 213.457031 213.050781 234.558594 191.953125 234.558594 165.988281 C 234.558594 140.023438 213.457031 118.925781 187.496094 118.925781 Z M 187.496094 118.925781 " fill-opacity="1" fill-rule="nonzero"/></svg>