<svg xmlns="http://www.w3.org/2000/svg" xmlns:xlink="http://www.w3.org/1999/xlink" width="500" zoomAndPan="magnify" viewBox="0 0 375 374.999991" height="500" preserveAspectRatio="xMidYMid meet" version="1.0"><defs><clipPath id="4e4e33215d"><path d="M 16 37.5 L 359.234375 37.5 L 359.234375 338 L 16 338 Z M 16 37.5 " clip-rule="nonzero"/></clipPath></defs><g clip-path="url(#4e4e33215d)"><path fill="#592e83" d="M 345.84375 337.976562 C 345.785156 337.980469 345.703125 337.980469 345.65625 337.976562 L 29.617188 337.976562 C 24.800781 337.976562 20.359375 335.414062 17.949219 331.25 C 15.550781 327.085938 15.550781 321.941406 17.949219 317.777344 L 175.953125 44.082031 C 178.367188 39.910156 182.808594 37.351562 187.636719 37.351562 C 192.441406 37.351562 196.890625 39.910156 199.292969 44.082031 L 356.304688 316.035156 C 358.179688 318.347656 359.304688 321.300781 359.304688 324.511719 C 359.3125 331.949219 353.273438 337.976562 345.84375 337.976562 Z M 59.921875 310.464844 C 99.609375 310.464844 313.363281 310.464844 316.835938 310.464844 C 320.660156 310.464844 318.699219 306.683594 318.699219 306.683594 L 188.789062 81.675781 C 188.789062 81.675781 187.277344 79.179688 185.765625 81.582031 C 184.382812 83.800781 73.367188 276.242188 55.914062 306.480469 C 54.425781 309.066406 55.855469 310.464844 59.921875 310.464844 Z M 59.921875 310.464844 " fill-opacity="1" fill-rule="nonzero"/></g><path fill="#592e83" d="M 187.242188 233.070312 C 179.863281 233.070312 173.878906 227.09375 173.878906 219.710938 L 170.601562 162.261719 C 170.601562 152.4375 179.859375 145.765625 187.238281 145.765625 C 194.625 145.765625 203.210938 152.445312 203.210938 161.339844 L 200.589844 219.710938 C 200.601562 227.09375 194.628906 233.070312 187.242188 233.070312 Z M 187.242188 233.070312 " fill-opacity="1" fill-rule="nonzero"/><path fill="#592e83" d="M 187.714844 249.296875 C 177.5 249.296875 169.230469 257.59375 169.230469 267.808594 C 169.230469 278.027344 177.5 286.3125 187.714844 286.3125 C 197.957031 286.3125 206.234375 278.027344 206.234375 267.808594 C 206.234375 257.597656 197.957031 249.296875 187.714844 249.296875 Z M 187.714844 249.296875 " fill-opacity="1" fill-rule="nonzero"/></svg>