<svg xmlns="http://www.w3.org/2000/svg" xmlns:xlink="http://www.w3.org/1999/xlink" width="500" zoomAndPan="magnify" viewBox="0 0 375 374.999991" height="500" preserveAspectRatio="xMidYMid meet" version="1.0"><defs><clipPath id="b41f035d00"><path d="M 37.5 23.355469 L 264 23.355469 L 264 351.855469 L 37.5 351.855469 Z M 37.5 23.355469 " clip-rule="nonzero"/></clipPath></defs><g clip-path="url(#b41f035d00)"><path fill="#592e83" d="M 150.523438 23.355469 C 140.007812 23.355469 131.546875 31.308594 130.261719 41.308594 L 94.101562 41.308594 C 88.460938 41.308594 83.84375 45.925781 83.84375 51.570312 L 83.84375 59.261719 L 53.324219 59.261719 C 44.605469 59.261719 37.679688 66.1875 37.679688 74.90625 L 37.679688 335.988281 C 37.679688 344.710938 44.605469 351.632812 53.324219 351.632812 L 247.726562 351.632812 C 256.445312 351.632812 263.371094 344.710938 263.371094 335.988281 L 263.371094 271.105469 C 263.371094 271.105469 263.113281 271.105469 263.113281 271.359375 L 253.109375 277.773438 L 253.109375 335.988281 C 253.109375 339.066406 250.804688 341.375 247.726562 341.375 L 53.324219 341.375 C 50.246094 341.375 47.9375 339.066406 47.9375 335.988281 L 47.9375 74.90625 C 47.9375 71.828125 50.246094 69.519531 53.324219 69.519531 L 83.84375 69.519531 L 83.84375 77.214844 C 83.84375 82.855469 88.460938 87.472656 94.101562 87.472656 L 206.945312 87.472656 C 212.589844 87.472656 217.207031 82.855469 217.207031 77.214844 L 217.207031 69.519531 L 247.726562 69.519531 C 250.804688 69.519531 253.109375 71.828125 253.109375 74.90625 L 253.109375 177.75 L 263.371094 162.875 L 263.371094 74.90625 C 263.371094 66.1875 256.445312 59.261719 247.726562 59.261719 L 217.207031 59.261719 L 217.207031 51.570312 C 217.207031 45.925781 212.589844 41.308594 206.945312 41.308594 L 170.785156 41.308594 C 169.503906 31.308594 161.039062 23.355469 150.523438 23.355469 Z M 206.945312 77.214844 L 94.101562 77.214844 L 94.101562 51.570312 L 135.394531 51.570312 C 136.929688 51.570312 138.46875 50.800781 139.238281 49.773438 C 140.007812 48.746094 140.523438 46.953125 140.265625 45.667969 C 140.265625 44.898438 140.265625 44.386719 140.265625 43.875 C 140.265625 38.230469 144.882812 33.617188 150.523438 33.617188 C 156.167969 33.617188 160.78125 38.230469 160.78125 43.875 C 160.78125 44.386719 160.78125 44.898438 160.527344 45.414062 C 160.269531 46.953125 160.527344 48.492188 161.550781 49.515625 C 162.578125 50.542969 163.859375 51.3125 165.398438 51.3125 L 206.945312 51.570312 Z M 206.945312 77.214844 " fill-opacity="1" fill-rule="nonzero"/></g><path fill="#592e83" d="M 332.871094 122.351562 L 329.28125 119.53125 C 325.179688 116.453125 320.304688 115.171875 315.433594 115.941406 C 310.558594 116.710938 306.199219 119.277344 302.867188 123.378906 L 226.4375 234.429688 C 226.4375 234.6875 226.183594 234.6875 226.183594 234.941406 C 225.925781 235.199219 225.925781 235.199219 225.667969 235.453125 C 225.667969 235.453125 225.667969 235.710938 225.414062 235.710938 C 224.898438 236.222656 224.644531 236.738281 224.386719 237.507812 L 209.769531 283.414062 C 209 285.464844 209.769531 287.773438 211.5625 289.054688 C 212.589844 289.824219 213.613281 290.082031 214.640625 290.082031 C 215.667969 290.082031 216.691406 289.824219 217.460938 289.3125 L 257.472656 262.640625 C 258.242188 262.128906 259.007812 261.359375 259.265625 260.589844 C 259.523438 260.332031 260.035156 260.074219 260.292969 259.5625 L 336.460938 148.769531 C 342.617188 140.304688 341.078125 128.507812 332.871094 122.351562 Z M 234.902344 265.460938 L 227.976562 260.332031 L 232.851562 244.945312 C 233.105469 244.945312 233.621094 244.945312 233.875 244.945312 C 234.132812 244.945312 234.644531 244.945312 234.644531 244.945312 L 234.902344 245.199219 C 234.902344 245.199219 235.160156 245.714844 235.160156 245.96875 C 235.671875 247.507812 236.183594 250.074219 239.261719 252.382812 C 242.339844 254.691406 244.902344 254.691406 246.441406 254.691406 C 246.699219 254.691406 247.210938 254.691406 247.210938 254.691406 L 247.46875 254.945312 C 247.46875 254.945312 247.726562 255.460938 247.726562 255.714844 C 247.726562 255.972656 247.980469 256.230469 247.980469 256.742188 Z M 224.644531 270.589844 L 225.667969 271.359375 L 223.875 272.644531 Z M 255.417969 248.277344 C 254.90625 247.765625 254.394531 246.996094 253.625 246.484375 C 250.546875 244.175781 247.980469 244.175781 246.441406 244.175781 C 246.1875 244.175781 245.671875 244.175781 245.671875 244.175781 L 245.417969 243.917969 C 245.417969 243.917969 245.160156 243.40625 245.160156 243.148438 C 244.648438 241.609375 244.132812 239.046875 241.058594 236.738281 C 240.03125 235.96875 239.261719 235.453125 238.234375 235.199219 L 294.402344 153.640625 L 311.328125 166.976562 Z M 328.253906 142.613281 L 317.226562 158.773438 L 300.300781 145.433594 L 311.328125 129.535156 C 312.609375 127.738281 314.664062 126.457031 316.972656 126.199219 C 319.28125 125.945312 321.332031 126.457031 323.125 127.738281 L 326.71875 130.558594 C 330.308594 133.125 331.078125 138.511719 328.253906 142.613281 Z M 328.253906 142.613281 " fill-opacity="1" fill-rule="nonzero"/><path fill="#592e83" d="M 83.328125 170.570312 C 84.355469 171.59375 85.636719 172.109375 86.921875 172.109375 C 88.203125 172.109375 89.484375 171.59375 90.511719 170.570312 L 97.179688 163.902344 L 103.847656 170.570312 C 104.875 171.59375 106.15625 172.109375 107.4375 172.109375 C 108.71875 172.109375 110.003906 171.59375 111.027344 170.570312 C 113.082031 168.515625 113.082031 165.441406 111.027344 163.386719 L 104.617188 156.71875 L 111.285156 150.050781 C 113.335938 148 113.335938 144.921875 111.285156 142.871094 C 109.234375 140.820312 106.15625 140.820312 104.105469 142.871094 L 97.4375 149.539062 L 90.769531 142.871094 C 88.714844 140.820312 85.636719 140.820312 83.585938 142.871094 C 81.535156 144.921875 81.535156 148 83.585938 150.050781 L 90.253906 156.71875 L 83.585938 163.386719 C 81.535156 165.441406 81.535156 168.515625 83.328125 170.570312 Z M 83.328125 170.570312 " fill-opacity="1" fill-rule="nonzero"/><path fill="#592e83" d="M 188.226562 230.070312 C 186.171875 228.015625 183.09375 228.015625 181.042969 230.070312 L 174.375 236.738281 L 167.707031 230.070312 C 165.65625 228.015625 162.578125 228.015625 160.527344 230.070312 C 158.476562 232.121094 158.476562 235.199219 160.527344 237.25 L 167.195312 243.917969 L 160.527344 250.585938 C 158.476562 252.636719 158.476562 255.714844 160.527344 257.769531 C 161.550781 258.792969 162.835938 259.304688 164.117188 259.304688 C 165.398438 259.304688 166.683594 258.792969 167.707031 257.769531 L 174.375 251.097656 L 181.042969 257.769531 C 182.070312 258.792969 183.351562 259.304688 184.632812 259.304688 C 185.917969 259.304688 187.199219 258.792969 188.226562 257.769531 C 190.277344 255.714844 190.277344 252.636719 188.226562 250.585938 L 181.558594 243.917969 L 188.226562 237.25 C 190.019531 235.199219 190.019531 232.121094 188.226562 230.070312 Z M 188.226562 230.070312 " fill-opacity="1" fill-rule="nonzero"/><path fill="#592e83" d="M 131.289062 212.375 C 150.78125 199.550781 172.835938 185.1875 168.734375 144.152344 L 175.144531 149.796875 C 176.171875 150.566406 177.195312 151.078125 178.480469 151.078125 C 180.019531 151.078125 181.300781 150.566406 182.328125 149.28125 C 184.121094 147.230469 183.863281 143.894531 181.8125 142.101562 L 165.398438 127.738281 C 164.886719 127.226562 164.375 126.96875 163.859375 126.714844 C 163.089844 126.457031 162.320312 126.199219 161.550781 126.457031 C 160.78125 126.457031 160.011719 126.714844 159.246094 127.226562 C 158.730469 127.484375 158.21875 127.738281 157.960938 128.253906 L 143.601562 144.664062 C 141.804688 146.71875 142.0625 150.050781 144.113281 151.847656 C 145.136719 152.617188 146.164062 153.128906 147.445312 153.128906 C 148.984375 153.128906 150.269531 152.617188 151.292969 151.335938 L 157.960938 143.640625 C 162.066406 179.546875 144.882812 190.828125 125.132812 203.652344 C 106.925781 215.707031 86.152344 229.300781 88.203125 264.949219 C 81.277344 267.511719 76.148438 274.4375 76.148438 282.386719 C 76.148438 292.390625 84.097656 300.339844 94.101562 300.339844 C 104.105469 300.339844 112.054688 292.390625 112.054688 282.386719 C 112.054688 274.179688 106.410156 267.257812 98.972656 265.207031 C 97.179688 234.941406 113.082031 224.425781 131.289062 212.375 Z M 101.796875 282.386719 C 101.796875 286.75 98.460938 290.082031 94.101562 290.082031 C 89.742188 290.082031 86.40625 286.75 86.40625 282.386719 C 86.40625 278.027344 89.742188 274.695312 94.101562 274.695312 C 98.460938 274.695312 101.796875 278.027344 101.796875 282.386719 Z M 101.796875 282.386719 " fill-opacity="1" fill-rule="nonzero"/><path fill="#592e83" d="M 201.816406 128.507812 C 201.816406 138.511719 209.769531 146.460938 219.769531 146.460938 C 229.773438 146.460938 237.722656 138.511719 237.722656 128.507812 C 237.722656 118.507812 229.773438 110.554688 219.769531 110.554688 C 209.769531 110.554688 201.816406 118.507812 201.816406 128.507812 Z M 227.464844 128.507812 C 227.464844 132.867188 224.128906 136.203125 219.769531 136.203125 C 215.410156 136.203125 212.078125 132.867188 212.078125 128.507812 C 212.078125 124.148438 215.410156 120.816406 219.769531 120.816406 C 224.128906 120.816406 227.464844 124.148438 227.464844 128.507812 Z M 227.464844 128.507812 " fill-opacity="1" fill-rule="nonzero"/></svg>