<svg xmlns="http://www.w3.org/2000/svg" xmlns:xlink="http://www.w3.org/1999/xlink" width="500" zoomAndPan="magnify" viewBox="0 0 375 374.999991" height="500" preserveAspectRatio="xMidYMid meet" version="1.0"><defs><clipPath id="1d46d6717e"><path d="M 13 18.75 L 362 18.75 L 362 356.25 L 13 356.25 Z M 13 18.75 " clip-rule="nonzero"/></clipPath></defs><g clip-path="url(#1d46d6717e)"><path fill="#592e83" d="M 204.582031 34.472656 C 200.210938 30.101562 194.167969 27.394531 187.496094 27.394531 C 180.820312 27.394531 174.777344 30.101562 170.40625 34.472656 C 166.035156 38.847656 163.328125 44.886719 163.328125 51.5625 C 163.328125 58.234375 166.035156 64.277344 170.40625 68.648438 C 174.777344 73.023438 180.820312 75.726562 187.496094 75.726562 C 194.167969 75.726562 200.210938 73.023438 204.582031 68.648438 C 208.957031 64.277344 211.660156 58.234375 211.660156 51.5625 C 211.660156 44.886719 208.957031 38.847656 204.582031 34.472656 Z M 187.496094 18.898438 C 196.511719 18.898438 204.679688 22.554688 210.589844 28.464844 C 216.5 34.375 220.15625 42.542969 220.15625 51.5625 C 220.15625 60.578125 216.5 68.746094 210.589844 74.65625 C 204.679688 80.566406 196.511719 84.222656 187.496094 84.222656 C 178.476562 84.222656 170.308594 80.566406 164.398438 74.65625 C 158.488281 68.746094 154.832031 60.578125 154.832031 51.5625 C 154.832031 42.542969 158.488281 34.375 164.398438 28.464844 C 170.308594 22.554688 178.476562 18.898438 187.496094 18.898438 Z M 122.960938 67.199219 C 119.625 63.859375 115.011719 61.796875 109.917969 61.796875 C 104.820312 61.796875 100.210938 63.863281 96.871094 67.199219 C 93.535156 70.535156 91.46875 75.148438 91.46875 80.242188 C 91.46875 85.339844 93.535156 89.953125 96.871094 93.289062 C 100.210938 96.625 104.820312 98.691406 109.917969 98.691406 C 115.011719 98.691406 119.625 96.625 122.960938 93.289062 C 126.300781 89.953125 128.363281 85.339844 128.363281 80.242188 C 128.363281 75.148438 126.300781 70.539062 122.960938 67.199219 Z M 109.917969 53.300781 C 117.355469 53.300781 124.09375 56.316406 128.96875 61.191406 C 133.84375 66.066406 136.863281 72.804688 136.863281 80.246094 C 136.863281 87.683594 133.847656 94.421875 128.96875 99.296875 C 124.09375 104.175781 117.355469 107.191406 109.917969 107.191406 C 102.476562 107.191406 95.742188 104.175781 90.863281 99.296875 C 85.988281 94.421875 82.972656 87.683594 82.972656 80.246094 C 82.972656 72.804688 85.988281 66.070312 90.863281 61.191406 C 95.742188 56.316406 102.476562 53.300781 109.917969 53.300781 Z M 278.117188 67.199219 C 274.777344 63.859375 270.167969 61.796875 265.070312 61.796875 C 259.976562 61.796875 255.363281 63.859375 252.027344 67.199219 C 248.691406 70.539062 246.625 75.148438 246.625 80.242188 C 246.625 85.339844 248.6875 89.953125 252.027344 93.289062 C 255.363281 96.625 259.976562 98.691406 265.070312 98.691406 C 270.167969 98.691406 274.777344 96.625 278.117188 93.289062 C 281.453125 89.953125 283.519531 85.339844 283.519531 80.242188 C 283.519531 75.148438 281.453125 70.535156 278.117188 67.199219 Z M 265.070312 53.300781 C 272.511719 53.300781 279.25 56.316406 284.125 61.191406 C 289 66.070312 292.015625 72.804688 292.015625 80.246094 C 292.015625 87.683594 289 94.421875 284.125 99.296875 C 279.246094 104.175781 272.511719 107.191406 265.070312 107.191406 C 257.632812 107.191406 250.894531 104.175781 246.019531 99.296875 C 241.144531 94.421875 238.125 87.683594 238.125 80.246094 C 238.125 72.804688 241.144531 66.070312 246.019531 61.191406 C 250.894531 56.316406 257.632812 53.300781 265.070312 53.300781 Z M 316.773438 215.160156 L 316.746094 215.148438 C 316.058594 214.894531 315.347656 214.707031 314.621094 214.582031 C 311.84375 214.113281 308.894531 214.582031 306.4375 216.105469 L 242.25 255.925781 C 225.785156 266.140625 217.445312 280.304688 213.214844 296.449219 C 209.191406 311.800781 208.808594 329.207031 208.777344 346.777344 L 280.046875 347.507812 C 277.792969 313.175781 280.902344 310.609375 302.480469 292.859375 C 310.039062 286.640625 320.050781 278.402344 333.226562 265.703125 C 335.65625 263.363281 337.578125 260.921875 338.953125 258.285156 C 340.277344 255.738281 341.089844 252.984375 341.332031 249.941406 L 341.34375 249.941406 C 341.347656 249.863281 341.355469 249.785156 341.367188 249.707031 L 353.085938 163.246094 C 353.09375 163.152344 353.105469 163.058594 353.117188 162.964844 L 353.144531 162.765625 C 353.425781 160.433594 352.648438 158.175781 351.148438 156.390625 L 351.15625 156.382812 C 349.574219 154.503906 347.195312 153.148438 344.375 152.734375 L 344.070312 152.695312 C 341.128906 152.339844 338.367188 153.089844 336.214844 154.582031 C 334.085938 156.058594 332.554688 158.261719 332.074219 160.8125 L 323.023438 208.796875 C 325.007812 209.992188 326.785156 211.550781 328.21875 213.449219 C 328.410156 213.703125 328.570312 213.976562 328.695312 214.253906 C 330.886719 218.398438 331.761719 223.140625 330.851562 227.542969 C 329.980469 231.753906 327.550781 235.59375 323.191406 238.296875 L 276.308594 267.382812 C 274.316406 268.613281 271.710938 267.996094 270.480469 266.007812 C 269.253906 264.015625 269.871094 261.410156 271.859375 260.179688 L 318.746094 231.09375 C 320.929688 229.738281 322.136719 227.871094 322.554688 225.847656 C 323.046875 223.460938 322.539062 220.789062 321.285156 218.355469 C 320.117188 216.894531 318.539062 215.816406 316.773438 215.160156 Z M 51.246094 159.253906 L 60.078125 206.0625 C 64.453125 205.5625 69.058594 206.457031 73 208.902344 L 78.960938 212.601562 L 78.960938 201.332031 L 76.132812 201.332031 C 72.113281 201.332031 68.460938 199.691406 65.816406 197.046875 C 63.171875 194.402344 61.527344 190.75 61.527344 186.730469 L 61.527344 137.246094 C 61.527344 129.269531 64.789062 122.023438 70.042969 116.769531 C 75.292969 111.519531 82.542969 108.257812 90.519531 108.257812 L 129.316406 108.257812 C 129.882812 108.257812 130.5 108.28125 131.167969 108.328125 C 132.933594 104.480469 135.371094 101.003906 138.328125 98.042969 C 144.710938 91.664062 153.519531 87.703125 163.207031 87.703125 L 211.78125 87.703125 C 221.472656 87.703125 230.277344 91.664062 236.660156 98.042969 C 239.617188 101.003906 242.054688 104.480469 243.820312 108.328125 C 244.488281 108.28125 245.105469 108.257812 245.671875 108.257812 L 284.46875 108.257812 C 292.445312 108.257812 299.695312 111.519531 304.945312 116.769531 C 310.199219 122.023438 313.460938 129.269531 313.460938 137.246094 L 313.460938 186.730469 C 313.460938 190.75 311.816406 194.402344 309.171875 197.046875 C 306.527344 199.691406 302.878906 201.332031 298.855469 201.332031 L 296.03125 201.332031 L 296.03125 212.601562 L 301.988281 208.902344 C 305.929688 206.457031 310.535156 205.5625 314.910156 206.0625 L 323.742188 159.253906 C 324.648438 154.445312 327.476562 150.332031 331.402344 147.609375 C 335.191406 144.984375 340 143.652344 345.066406 144.261719 C 345.214844 144.28125 345.394531 144.304688 345.601562 144.335938 C 350.527344 145.058594 354.757812 147.519531 357.636719 150.949219 L 357.644531 150.957031 L 357.65625 150.949219 C 360.617188 154.472656 362.148438 159.011719 361.574219 163.761719 L 361.515625 164.191406 L 361.484375 164.386719 L 349.796875 250.605469 C 349.457031 254.832031 348.332031 258.660156 346.488281 262.203125 C 344.6875 265.65625 342.207031 268.820312 339.105469 271.808594 C 325.773438 284.65625 315.5625 293.054688 307.859375 299.394531 C 288.429688 315.382812 286.339844 317.101562 288.828125 351.488281 C 288.992188 353.824219 287.230469 355.855469 284.894531 356.019531 C 284.675781 356.035156 284.460938 356.03125 284.246094 356.015625 L 204.488281 355.199219 C 202.164062 355.179688 200.289062 353.289062 200.289062 350.96875 L 200.273438 350.96875 C 200.273438 331.488281 200.378906 312.011719 205.015625 294.324219 C 209.761719 276.207031 219.171875 260.28125 237.804688 248.722656 L 287.714844 217.757812 C 287.597656 217.371094 287.53125 216.957031 287.53125 216.53125 L 287.53125 147.035156 C 287.53125 144.691406 289.433594 142.789062 291.78125 142.789062 C 294.128906 142.789062 296.03125 144.691406 296.03125 147.035156 L 296.03125 192.835938 L 298.855469 192.835938 C 300.53125 192.835938 302.058594 192.144531 303.164062 191.039062 C 304.273438 189.929688 304.960938 188.402344 304.960938 186.730469 L 304.960938 137.246094 C 304.960938 131.617188 302.65625 126.492188 298.941406 122.777344 C 295.222656 119.0625 290.101562 116.753906 284.46875 116.753906 L 246.457031 116.753906 C 246.816406 118.757812 247.003906 120.820312 247.003906 122.925781 L 247.003906 184.871094 C 247.003906 189.265625 245.339844 193.285156 242.609375 196.332031 L 242.609375 216.53125 C 242.609375 218.878906 240.707031 220.78125 238.363281 220.78125 C 236.015625 220.78125 234.113281 218.878906 234.113281 216.53125 L 234.113281 201.53125 C 232.730469 201.894531 231.28125 202.085938 229.789062 202.085938 L 225.179688 202.085938 L 225.179688 222.183594 C 225.179688 224.527344 223.277344 226.429688 220.929688 226.429688 C 218.585938 226.429688 216.683594 224.527344 216.683594 222.183594 L 216.683594 135.183594 C 216.683594 132.835938 218.585938 130.933594 220.929688 130.933594 C 223.277344 130.933594 225.179688 132.835938 225.179688 135.183594 L 225.179688 193.585938 L 229.789062 193.585938 C 231.976562 193.585938 233.980469 192.769531 235.515625 191.421875 L 235.585938 191.359375 C 235.707031 191.253906 235.828125 191.140625 235.941406 191.023438 C 237.523438 189.441406 238.503906 187.265625 238.503906 184.871094 L 238.503906 122.925781 C 238.503906 115.582031 235.496094 108.898438 230.652344 104.054688 C 225.804688 99.207031 219.125 96.199219 211.78125 96.199219 L 163.207031 96.199219 C 155.863281 96.199219 149.183594 99.207031 144.335938 104.054688 C 139.492188 108.898438 136.484375 115.582031 136.484375 122.925781 L 136.484375 184.871094 C 136.484375 187.265625 137.464844 189.441406 139.046875 191.023438 C 139.164062 191.140625 139.28125 191.253906 139.402344 191.363281 L 139.472656 191.425781 C 141.007812 192.769531 143.011719 193.589844 145.199219 193.589844 L 149.808594 193.589844 L 149.808594 135.183594 C 149.808594 132.835938 151.710938 130.933594 154.054688 130.933594 C 156.402344 130.933594 158.304688 132.835938 158.304688 135.183594 L 158.304688 222.183594 C 158.304688 224.53125 156.402344 226.433594 154.054688 226.433594 C 151.710938 226.433594 149.808594 224.53125 149.808594 222.183594 L 149.808594 202.085938 L 145.199219 202.085938 C 143.707031 202.085938 142.257812 201.894531 140.875 201.535156 L 140.875 216.53125 C 140.875 218.878906 138.972656 220.78125 136.625 220.78125 C 134.28125 220.78125 132.378906 218.878906 132.378906 216.53125 L 132.378906 196.332031 C 129.648438 193.285156 127.984375 189.265625 127.984375 184.871094 L 127.984375 122.925781 C 127.984375 120.824219 128.171875 118.761719 128.53125 116.757812 L 90.519531 116.757812 C 84.886719 116.757812 79.765625 119.0625 76.050781 122.777344 C 72.332031 126.496094 70.027344 131.617188 70.027344 137.246094 L 70.027344 186.730469 C 70.027344 188.402344 70.714844 189.929688 71.824219 191.039062 C 72.929688 192.148438 74.457031 192.835938 76.132812 192.835938 L 78.960938 192.835938 L 78.960938 147.039062 C 78.960938 144.691406 80.863281 142.789062 83.207031 142.789062 C 85.554688 142.789062 87.457031 144.691406 87.457031 147.039062 L 87.457031 216.53125 C 87.457031 216.957031 87.394531 217.371094 87.277344 217.761719 L 137.1875 248.722656 C 155.816406 260.28125 165.226562 276.207031 169.972656 294.324219 C 174.609375 312.011719 174.714844 331.488281 174.714844 350.96875 L 174.699219 350.96875 C 174.699219 353.289062 172.824219 355.183594 170.5 355.199219 L 90.742188 356.015625 C 90.53125 356.035156 90.3125 356.035156 90.09375 356.019531 C 87.757812 355.855469 85.996094 353.824219 86.160156 351.488281 C 88.652344 317.101562 86.558594 315.382812 67.132812 299.398438 C 59.425781 293.058594 49.21875 284.660156 35.886719 271.808594 C 32.78125 268.820312 30.300781 265.65625 28.503906 262.203125 C 26.65625 258.660156 25.53125 254.835938 25.191406 250.605469 L 13.503906 164.386719 L 13.472656 164.191406 L 13.414062 163.761719 C 12.839844 159.011719 14.371094 154.476562 17.335938 150.949219 L 17.34375 150.957031 L 17.351562 150.949219 C 20.230469 147.519531 24.460938 145.058594 29.386719 144.335938 C 29.59375 144.304688 29.773438 144.28125 29.921875 144.261719 C 34.988281 143.652344 39.800781 144.984375 43.585938 147.613281 C 47.511719 150.332031 50.339844 154.445312 51.246094 159.253906 Z M 58.246094 215.144531 L 58.210938 215.160156 C 56.445312 215.816406 54.871094 216.894531 53.703125 218.355469 C 52.449219 220.789062 51.941406 223.460938 52.4375 225.847656 C 52.855469 227.871094 54.058594 229.738281 56.242188 231.09375 L 103.128906 260.179688 C 105.117188 261.410156 105.734375 264.015625 104.507812 266.007812 C 103.277344 267.996094 100.671875 268.613281 98.683594 267.382812 L 51.796875 238.296875 C 47.4375 235.59375 45.007812 231.753906 44.136719 227.542969 C 43.226562 223.140625 44.101562 218.398438 46.292969 214.253906 C 46.417969 213.972656 46.578125 213.703125 46.769531 213.449219 C 48.203125 211.550781 49.980469 209.992188 51.96875 208.796875 L 42.914062 160.8125 C 42.433594 158.261719 40.902344 156.058594 38.773438 154.582031 C 36.625 153.089844 33.859375 152.339844 30.917969 152.695312 L 30.617188 152.734375 C 27.792969 153.148438 25.414062 154.503906 23.832031 156.382812 L 23.839844 156.390625 C 22.34375 158.175781 21.5625 160.433594 21.84375 162.765625 L 21.871094 162.964844 C 21.882812 163.058594 21.894531 163.152344 21.902344 163.246094 L 33.621094 249.707031 C 33.632812 249.785156 33.640625 249.863281 33.644531 249.941406 L 33.65625 249.941406 C 33.898438 252.984375 34.710938 255.738281 36.035156 258.285156 C 37.410156 260.921875 39.335938 263.363281 41.761719 265.703125 C 54.9375 278.402344 64.949219 286.640625 72.507812 292.859375 C 94.085938 310.609375 97.195312 313.179688 94.941406 347.507812 L 166.214844 346.777344 C 166.179688 329.207031 165.796875 311.800781 161.773438 296.449219 C 157.546875 280.304688 149.203125 266.140625 132.738281 255.925781 L 68.550781 216.105469 C 66.09375 214.582031 63.140625 214.113281 60.367188 214.582031 C 59.640625 214.707031 58.929688 214.894531 58.246094 215.148438 Z M 58.246094 215.144531 " fill-opacity="1" fill-rule="evenodd"/></g></svg>