<svg xmlns="http://www.w3.org/2000/svg" xmlns:xlink="http://www.w3.org/1999/xlink" width="500" zoomAndPan="magnify" viewBox="0 0 375 374.999991" height="500" preserveAspectRatio="xMidYMid meet" version="1.0"><defs><clipPath id="fb3ca3d5e1"><path d="M 14 40.648438 L 277 40.648438 L 277 286 L 14 286 Z M 14 40.648438 " clip-rule="nonzero"/></clipPath><clipPath id="e91d1c7497"><path d="M 134 173 L 362.894531 173 L 362.894531 334.648438 L 134 334.648438 Z M 134 173 " clip-rule="nonzero"/></clipPath></defs><path fill="#592e83" d="M 71.246094 148.609375 C 66.894531 148.609375 62.542969 149.96875 58.734375 152.417969 C 48.945312 159.214844 46.5 172.8125 53.296875 182.601562 C 57.375 188.3125 63.902344 191.847656 71.246094 191.847656 C 75.597656 191.847656 79.945312 190.488281 83.753906 188.039062 C 93.542969 181.242188 95.992188 167.644531 89.191406 157.855469 C 85.113281 152.144531 78.316406 148.609375 71.246094 148.609375 Z M 77.5 179.066406 C 75.597656 180.425781 73.421875 180.96875 71.246094 180.96875 C 67.710938 180.96875 64.445312 179.339844 62.269531 176.347656 C 58.734375 171.453125 60.09375 164.652344 64.992188 161.117188 C 66.894531 159.757812 69.070312 159.214844 71.246094 159.214844 C 74.78125 159.214844 78.042969 160.847656 80.21875 163.839844 C 83.480469 169.003906 82.394531 175.804688 77.5 179.066406 Z M 77.5 179.066406 " fill-opacity="1" fill-rule="nonzero"/><path fill="#592e83" d="M 103.878906 193.207031 C 101.429688 194.839844 99.796875 197.285156 99.527344 200.277344 C 99.527344 200.550781 99.527344 200.820312 99.527344 201.09375 L 99.527344 256.027344 C 99.527344 259.015625 101.972656 261.464844 104.964844 261.464844 C 107.957031 261.464844 110.402344 259.015625 110.402344 256.027344 L 110.402344 202.183594 L 124 204.628906 L 124 195.65625 C 124 194.839844 124 194.296875 124 193.480469 L 112.035156 191.304688 C 109.042969 191.03125 106.054688 191.574219 103.878906 193.207031 Z M 103.878906 193.207031 " fill-opacity="1" fill-rule="nonzero"/><path fill="#592e83" d="M 250.179688 156.769531 C 251.542969 154.046875 250.179688 150.785156 247.460938 149.425781 L 161.527344 109.449219 C 161.257812 109.449219 160.984375 109.179688 160.714844 109.179688 C 157.722656 108.363281 154.730469 108.90625 152.011719 110.539062 C 149.292969 112.167969 147.660156 114.890625 147.117188 117.878906 C 147.117188 118.152344 147.117188 118.695312 147.117188 118.96875 L 148.203125 164.109375 C 150.921875 163.292969 153.644531 163.023438 156.363281 163.023438 L 159.082031 163.023438 L 157.992188 119.785156 L 243.109375 159.488281 C 245.558594 160.574219 248.820312 159.488281 250.179688 156.769531 Z M 250.179688 156.769531 " fill-opacity="1" fill-rule="nonzero"/><g clip-path="url(#fb3ca3d5e1)"><path fill="#592e83" d="M 103.332031 274.519531 C 99.796875 274.519531 96.535156 272.886719 94.359375 269.894531 L 27.734375 174.171875 C 24.199219 169.277344 25.558594 162.476562 30.453125 158.941406 L 181.378906 53.429688 C 183.285156 52.070312 185.460938 51.527344 187.636719 51.527344 C 191.171875 51.527344 194.433594 53.160156 196.609375 56.148438 L 263.234375 151.871094 C 265.683594 155.40625 265.683594 159.488281 264.050781 163.023438 L 275.472656 163.023438 C 276.832031 157.3125 275.742188 150.785156 272.207031 145.617188 L 205.582031 49.894531 C 201.503906 44.183594 194.976562 40.648438 187.636719 40.648438 C 183.285156 40.648438 178.933594 42.007812 175.125 44.457031 L 24.199219 150.242188 C 14.410156 157.039062 11.960938 170.636719 18.761719 180.425781 L 85.386719 276.148438 C 89.464844 281.859375 95.992188 285.394531 103.332031 285.394531 C 107.683594 285.394531 112.035156 284.035156 115.84375 281.589844 L 123.730469 275.878906 L 123.730469 262.550781 L 109.589844 272.613281 C 107.683594 273.972656 105.507812 274.519531 103.332031 274.519531 Z M 103.332031 274.519531 " fill-opacity="1" fill-rule="nonzero"/></g><g clip-path="url(#e91d1c7497)"><path fill="#592e83" d="M 341.28125 173.898438 L 156.363281 173.898438 C 144.398438 173.898438 134.605469 183.691406 134.605469 195.65625 L 134.605469 312.589844 C 134.605469 324.554688 144.398438 334.34375 156.363281 334.34375 L 341.28125 334.34375 C 353.246094 334.34375 363.035156 324.554688 363.035156 312.589844 L 363.035156 195.65625 C 363.035156 183.691406 353.246094 173.898438 341.28125 173.898438 Z M 352.160156 312.589844 C 352.160156 318.570312 347.265625 323.46875 341.28125 323.46875 L 156.363281 323.46875 C 150.378906 323.46875 145.484375 318.570312 145.484375 312.589844 L 145.484375 195.65625 C 145.484375 189.671875 150.378906 184.777344 156.363281 184.777344 L 341.28125 184.777344 C 347.265625 184.777344 352.160156 189.671875 352.160156 195.65625 Z M 352.160156 312.589844 " fill-opacity="1" fill-rule="nonzero"/></g><path fill="#592e83" d="M 292.605469 219.3125 C 292.332031 219.042969 292.332031 218.769531 292.058594 218.5 C 290.15625 216.050781 287.164062 214.691406 284.175781 214.691406 C 281.183594 214.691406 278.191406 215.777344 276.015625 217.953125 C 275.742188 218.226562 275.472656 218.5 275.199219 218.769531 L 231.691406 285.125 L 204.765625 258.203125 C 200.6875 254.121094 193.617188 254.121094 189.265625 258.203125 C 188.996094 258.472656 188.722656 258.746094 188.722656 259.015625 L 157.179688 304.160156 C 155.546875 306.605469 156.089844 310.140625 158.539062 311.773438 C 159.351562 312.316406 160.441406 312.863281 161.527344 312.863281 C 163.160156 312.863281 165.0625 312.046875 165.878906 310.414062 L 197.152344 266.085938 L 228.699219 297.632812 C 229.785156 298.71875 231.417969 299.265625 233.050781 299.265625 C 234.679688 298.992188 236.039062 298.175781 237.128906 296.816406 L 283.902344 225.570312 L 331.21875 307.152344 C 332.851562 309.871094 336.113281 310.6875 338.5625 309.054688 C 341.28125 307.421875 342.097656 304.160156 340.464844 301.710938 Z M 292.605469 219.3125 " fill-opacity="1" fill-rule="nonzero"/><path fill="#592e83" d="M 183.554688 239.164062 C 195.523438 239.164062 205.3125 229.375 205.3125 217.410156 C 205.3125 205.445312 195.523438 195.65625 183.554688 195.65625 C 171.589844 195.65625 161.800781 205.445312 161.800781 217.410156 C 161.800781 229.375 171.589844 239.164062 183.554688 239.164062 Z M 183.554688 206.53125 C 189.539062 206.53125 194.433594 211.425781 194.433594 217.410156 C 194.433594 223.394531 189.539062 228.289062 183.554688 228.289062 C 177.574219 228.289062 172.679688 223.394531 172.679688 217.410156 C 172.679688 211.425781 177.574219 206.53125 183.554688 206.53125 Z M 183.554688 206.53125 " fill-opacity="1" fill-rule="nonzero"/></svg>