<svg xmlns="http://www.w3.org/2000/svg" xmlns:xlink="http://www.w3.org/1999/xlink" width="500" zoomAndPan="magnify" viewBox="0 0 375 374.999991" height="500" preserveAspectRatio="xMidYMid meet" version="1.0"><defs><clipPath id="3a9bdf8a95"><path d="M 14 10.578125 L 360 10.578125 L 360 364.578125 L 14 364.578125 Z M 14 10.578125 " clip-rule="nonzero"/></clipPath></defs><g clip-path="url(#3a9bdf8a95)"><path fill="#592e83" d="M 355.894531 229.019531 C 352.617188 223.546875 339.160156 207.296875 303.621094 227.996094 L 286.125 238.1875 C 289.238281 230.417969 291.117188 222.25 291.644531 213.945312 C 292.683594 197.554688 288.667969 181.265625 279.707031 165.53125 C 270.042969 148.5625 255.328125 129.398438 233.707031 105.667969 C 239.664062 102.441406 243.71875 96.136719 243.71875 88.898438 C 243.71875 79.273438 236.542969 71.296875 227.265625 70.019531 L 240.175781 57.109375 C 247.753906 49.53125 247.753906 37.203125 240.175781 29.625 C 233.761719 23.210938 223.5625 22.117188 215.925781 27.015625 C 215.417969 27.34375 214.984375 27.382812 214.425781 27.152344 C 213.867188 26.921875 213.585938 26.585938 213.457031 25.996094 C 211.519531 17.125 203.535156 10.691406 194.464844 10.691406 C 185.398438 10.691406 177.414062 17.128906 175.476562 25.996094 C 175.347656 26.585938 175.066406 26.921875 174.511719 27.152344 C 173.953125 27.382812 173.515625 27.34375 173.007812 27.019531 C 165.371094 22.117188 155.171875 23.210938 148.757812 29.625 C 145.097656 33.285156 143.082031 38.164062 143.082031 43.367188 C 143.082031 48.570312 145.097656 53.449219 148.757812 57.109375 L 161.667969 70.019531 C 152.386719 71.296875 145.214844 79.273438 145.214844 88.898438 C 145.214844 96.136719 149.269531 102.441406 155.222656 105.667969 C 133.605469 129.398438 118.890625 148.5625 109.226562 165.53125 C 97.582031 185.976562 94.261719 207.550781 99.527344 228.195312 L 64.074219 248.71875 L 59.65625 240.914062 C 55.648438 233.832031 46.625 231.328125 39.542969 235.335938 L 21.945312 245.296875 C 14.863281 249.304688 12.363281 258.328125 16.371094 265.410156 L 68.105469 356.820312 C 70.816406 361.613281 75.824219 364.308594 80.972656 364.308594 C 83.433594 364.308594 85.929688 363.691406 88.21875 362.394531 L 105.816406 352.4375 C 112.898438 348.429688 115.398438 339.40625 111.390625 332.320312 L 106.035156 322.863281 L 116.722656 316.695312 L 197.066406 338.222656 C 201.597656 339.4375 206.046875 340.042969 210.402344 340.042969 C 219.082031 340.042969 227.378906 337.632812 235.1875 332.824219 L 349.003906 262.742188 C 359.359375 256.363281 362.644531 240.292969 355.894531 229.019531 Z M 154.132812 43.367188 C 154.132812 41.117188 155 39.011719 156.570312 37.4375 C 159.335938 34.671875 163.738281 34.199219 167.039062 36.316406 C 170.582031 38.589844 174.847656 38.972656 178.738281 37.363281 C 182.628906 35.75 185.375 32.464844 186.273438 28.351562 C 187.109375 24.523438 190.554688 21.742188 194.464844 21.742188 C 198.378906 21.742188 201.824219 24.519531 202.660156 28.351562 C 203.558594 32.464844 206.304688 35.75 210.195312 37.363281 C 214.085938 38.972656 218.347656 38.589844 221.894531 36.316406 C 225.191406 34.199219 229.59375 34.671875 232.359375 37.4375 C 233.933594 39.011719 234.800781 41.117188 234.800781 43.367188 C 234.800781 45.617188 233.933594 47.722656 232.359375 49.296875 L 211.820312 69.835938 L 177.113281 69.835938 L 156.570312 49.296875 C 155 47.722656 154.132812 45.617188 154.132812 43.367188 Z M 164.273438 80.886719 L 224.660156 80.886719 C 229.074219 80.886719 232.667969 84.480469 232.667969 88.898438 C 232.667969 93.316406 229.074219 96.90625 224.660156 96.90625 L 164.273438 96.90625 C 159.855469 96.90625 156.261719 93.3125 156.261719 88.898438 C 156.265625 84.480469 159.855469 80.886719 164.273438 80.886719 Z M 118.828125 171 C 128.761719 153.558594 144.457031 133.484375 168.128906 107.957031 L 220.800781 107.957031 C 244.472656 133.484375 260.167969 153.558594 270.101562 171 C 285.125 197.378906 284.25 225.695312 267.765625 248.878906 L 240.90625 264.523438 C 237.726562 266.375 234.496094 267.675781 231.121094 268.445312 C 232.378906 266.449219 233.363281 264.179688 234.039062 261.667969 C 237.238281 249.722656 230.136719 237.25 217.871094 233.273438 C 217.636719 233.195312 217.394531 233.136719 217.148438 233.089844 C 215.871094 232.859375 214.589844 232.609375 213.316406 232.347656 C 215.304688 231.085938 217.058594 229.617188 218.488281 227.960938 C 222.191406 223.679688 223.773438 218.308594 223.058594 212.425781 C 220.875 194.453125 201.527344 191.273438 195.167969 190.230469 C 179.117188 187.59375 178.792969 180.953125 178.675781 178.453125 C 178.324219 171.214844 184.230469 167.265625 189.878906 165.984375 C 191.203125 165.683594 192.582031 165.511719 193.976562 165.472656 C 194.171875 165.480469 194.371094 165.480469 194.5625 165.46875 C 200.964844 165.488281 207.585938 168.480469 210.675781 175.835938 C 211.855469 178.652344 215.09375 179.976562 217.90625 178.792969 C 220.722656 177.613281 222.042969 174.375 220.863281 171.558594 C 216.632812 161.488281 208.292969 156.378906 199.734375 154.90625 L 199.734375 149.601562 C 199.734375 146.550781 197.257812 144.078125 194.207031 144.078125 C 191.15625 144.078125 188.683594 146.550781 188.683594 149.601562 L 188.683594 154.953125 C 188.261719 155.03125 187.847656 155.117188 187.433594 155.210938 C 175.039062 158.019531 167.082031 167.578125 167.636719 178.988281 C 168.035156 187.230469 172.828125 197.761719 193.378906 201.136719 C 208.914062 203.6875 211.539062 209.222656 212.089844 213.757812 C 212.425781 216.539062 211.785156 218.820312 210.128906 220.734375 C 204.472656 227.277344 192.90625 227.832031 185.371094 224.667969 C 181.910156 223.214844 177.554688 220.246094 176.074219 214.3125 C 175.335938 211.351562 172.335938 209.550781 169.375 210.289062 C 166.414062 211.027344 164.613281 214.023438 165.351562 216.984375 C 165.410156 217.226562 165.480469 217.464844 165.546875 217.703125 C 161.132812 216.109375 156.976562 214.617188 153.386719 213.457031 C 137.347656 208.253906 122.84375 214.695312 110.769531 221.6875 L 109.53125 222.402344 C 106.0625 205.492188 109.222656 187.863281 118.828125 171 Z M 100.371094 342.820312 L 82.773438 352.777344 C 81.027344 353.769531 78.710938 353.128906 77.71875 351.378906 L 25.984375 259.96875 C 24.996094 258.21875 25.636719 255.902344 27.386719 254.914062 C 27.386719 254.914062 44.984375 244.953125 44.984375 244.953125 C 46.714844 243.972656 49.046875 244.601562 50.039062 246.355469 L 101.773438 337.765625 C 102.761719 339.515625 102.121094 341.828125 100.371094 342.820312 Z M 343.210938 253.332031 L 229.394531 323.414062 C 220.359375 328.976562 210.445312 330.367188 199.921875 327.546875 L 117.371094 305.425781 C 115.953125 305.046875 114.445312 305.246094 113.175781 305.980469 L 100.59375 313.246094 L 69.519531 258.335938 L 116.304688 231.246094 C 126.773438 225.1875 138.101562 220.109375 149.980469 223.964844 C 153.792969 225.203125 158.1875 226.789062 163.277344 228.628906 C 177.859375 233.902344 195.984375 240.457031 214.789062 243.894531 C 221.367188 246.1875 225.042969 252.542969 223.363281 258.804688 C 221.15625 267.046875 214.292969 268.070312 208.835938 267.441406 C 199.59375 265.542969 190.816406 263.039062 181.523438 260.386719 C 177.121094 259.128906 172.5625 257.824219 167.882812 256.570312 C 164.933594 255.785156 161.90625 257.53125 161.117188 260.480469 C 160.328125 263.425781 162.078125 266.457031 165.023438 267.246094 C 169.617188 268.476562 174.128906 269.765625 178.488281 271.011719 C 188.0625 273.742188 197.101562 276.328125 206.835938 278.316406 C 206.875 278.324219 214.855469 279.625 214.855469 279.625 C 226.507812 281.488281 236.851562 279.671875 246.46875 274.074219 L 309.183594 237.542969 C 327.257812 227.015625 341.175781 225.953125 346.414062 234.699219 C 350.027344 240.726562 348.410156 250.128906 343.210938 253.332031 Z M 50.109375 262.640625 C 50.613281 266.074219 48.234375 269.265625 44.800781 269.769531 C 41.367188 270.269531 38.179688 267.894531 37.675781 264.460938 C 37.175781 261.027344 39.550781 257.835938 42.984375 257.335938 C 46.417969 256.832031 49.609375 259.210938 50.109375 262.640625 Z M 50.109375 262.640625 " fill-opacity="1" fill-rule="evenodd"/></g></svg>