<svg xmlns="http://www.w3.org/2000/svg" xmlns:xlink="http://www.w3.org/1999/xlink" width="500" zoomAndPan="magnify" viewBox="0 0 375 374.999991" height="500" preserveAspectRatio="xMidYMid meet" version="1.0"><path fill="#592e83" d="M 270.261719 26.699219 C 305.722656 23.109375 333.21875 50.359375 336.25 79.714844 C 337.976562 96.453125 332.695312 111.582031 326.660156 120.324219 C 322.785156 125.9375 315.960938 129.046875 311.433594 136.117188 C 308.695312 140.390625 307.363281 157.859375 301.84375 157.546875 C 295.578125 157.195312 299.859375 146.78125 300.714844 144.011719 C 301.441406 141.667969 304.382812 132.535156 305.792969 130.476562 C 308.542969 126.457031 315.210938 123.414062 318.199219 119.757812 C 325.289062 111.09375 330.859375 97.148438 328.917969 80.28125 C 326.042969 55.371094 303.714844 31.191406 271.953125 33.46875 C 232.332031 36.304688 206.617188 86.089844 233.035156 119.195312 C 237 124.164062 241.691406 125.355469 245.445312 131.039062 C 246.511719 132.652344 256.382812 156.371094 249.957031 157.546875 C 243.878906 158.660156 242.339844 140.132812 239.804688 136.117188 C 236.519531 130.914062 230.667969 128.351562 227.394531 124.273438 C 220.746094 115.96875 215.015625 103.914062 214.988281 88.175781 C 214.929688 54.945312 237.464844 30.019531 270.261719 26.699219 Z M 270.261719 26.699219 " fill-opacity="1" fill-rule="evenodd"/><path fill="#592e83" d="M 70.039062 74.074219 C 77.105469 80.042969 87.203125 90.828125 88.652344 105.660156 C 90.167969 121.207031 88.652344 138.78125 88.652344 156.417969 C 88.652344 188.390625 88.652344 225.09375 88.652344 257.375 C 88.652344 274.546875 87.167969 291.757812 88.652344 307.570312 C 91.039062 332.960938 117.621094 351.773438 143.925781 339.15625 C 160.269531 331.316406 166.53125 315.230469 166.484375 290.085938 C 229.351562 287.84375 298.980469 288.953125 363.320312 289.523438 C 369.226562 321.8125 349.421875 346.957031 322.148438 349.871094 C 307.003906 351.492188 289.8125 349.871094 273.082031 349.871094 C 225.683594 349.871094 172.089844 351.871094 126.441406 350.433594 C 101.8125 349.660156 83.328125 332.234375 81.320312 306.445312 C 78.984375 276.441406 81.320312 244.5 81.320312 213.382812 C 81.320312 182.132812 81.320312 150.882812 81.320312 120.324219 C 55.734375 119.589844 27.199219 121.804688 3.488281 119.195312 C 0.179688 89.613281 17.230469 68.953125 43.53125 66.742188 C 70.394531 64.484375 101.996094 66.742188 128.695312 66.742188 C 148.363281 66.742188 171.066406 66.742188 192.992188 66.742188 C 196.914062 66.742188 210.15625 65.234375 209.910156 70.691406 C 209.65625 76.402344 186.304688 74.074219 177.199219 74.074219 C 139.730469 74.074219 106.105469 74.074219 70.039062 74.074219 Z M 70.039062 74.074219 " fill-opacity="1" fill-rule="evenodd"/><path fill="#592e83" d="M 264.621094 109.609375 C 270.292969 111.632812 280.042969 110.683594 286.617188 110.171875 C 287.8125 104.035156 287.644531 96.535156 290.5625 92.125 C 309.566406 84.308594 304.429688 112.105469 289.4375 111.863281 C 287.976562 122.898438 286.851562 135.285156 285.488281 147.394531 C 285.109375 150.753906 285.476562 155.4375 282.667969 157.546875 C 280.988281 144.855469 285.617188 128.210938 286.050781 113.554688 C 280.484375 113.507812 271.691406 114.628906 265.183594 112.992188 C 266.195312 127.960938 269.648438 143.496094 269.695312 157.546875 C 265.46875 156.660156 266.710938 150.746094 266.3125 147.394531 C 265.089844 137.164062 263.480469 123.511719 261.800781 112.992188 C 256.007812 109.171875 244.824219 105.929688 247.699219 95.507812 C 249.089844 90.476562 258.179688 88.578125 261.800781 93.25 C 265.589844 98.144531 262.09375 103.976562 264.621094 109.609375 Z M 261.800781 108.480469 C 260.179688 103.894531 261.382812 96.488281 257.851562 93.816406 C 243.019531 93.3125 254.984375 110.738281 261.800781 108.480469 Z M 292.820312 94.378906 C 291.082031 97.910156 289.707031 104.796875 290.5625 109.042969 C 297.542969 108.371094 307.058594 91.988281 292.820312 94.378906 Z M 292.820312 94.378906 " fill-opacity="1" fill-rule="evenodd"/><path fill="#592e83" d="M 151.820312 139.5 C 152.578125 145.058594 145.664062 145.167969 144.488281 150.214844 C 142.898438 157.050781 147.550781 166.234375 142.796875 171.648438 C 134.015625 172.3125 120.21875 173.191406 112.339844 171.082031 C 110.574219 163.441406 110.441406 148.8125 112.339844 141.191406 C 120.570312 136.074219 140.921875 143.355469 146.746094 137.242188 C 149.761719 136.667969 150.855469 138.019531 151.820312 139.5 Z M 117.980469 150.78125 C 119.859375 150.589844 120.480469 149.144531 123.054688 149.652344 C 125.292969 150.988281 126.40625 153.445312 128.132812 155.292969 C 131.65625 153.175781 134.476562 150.355469 136.59375 146.832031 C 130.621094 148.378906 117.84375 143.125 117.980469 150.78125 Z M 117.980469 164.878906 C 120.4375 164.515625 124.355469 165.613281 125.875 164.316406 C 123.007812 162.105469 121.582031 158.457031 118.542969 156.417969 C 118.980469 159.863281 117.804688 161.695312 117.980469 164.878906 Z M 130.386719 164.878906 C 132.832031 164.878906 135.277344 164.878906 137.71875 164.878906 C 137.355469 162.421875 138.457031 158.503906 137.15625 156.984375 C 134.949219 159.664062 132.382812 161.988281 130.386719 164.878906 Z M 130.386719 164.878906 " fill-opacity="1" fill-rule="evenodd"/><path fill="#592e83" d="M 160.28125 154.726562 C 160.300781 152.871094 160.050781 150.738281 161.972656 150.78125 C 175.09375 148.789062 201.964844 149.652344 221.191406 149.652344 C 227.058594 149.652344 236.082031 148.464844 236.421875 153.035156 C 236.816406 158.367188 226.140625 156.984375 219.5 156.984375 C 205.136719 156.984375 192.710938 156.984375 178.328125 156.984375 C 171.800781 156.984375 164.035156 158.523438 160.28125 154.726562 Z M 160.28125 154.726562 " fill-opacity="1" fill-rule="evenodd"/><path fill="#592e83" d="M 248.828125 163.75 C 254.148438 161.0625 267.773438 163.1875 279.285156 163.1875 C 285.398438 163.1875 304.238281 161.28125 305.226562 166.570312 C 306.792969 174.933594 286.667969 172.210938 277.027344 172.210938 C 267.757812 172.210938 248.867188 174.535156 246.570312 169.390625 C 245.335938 166.621094 246.65625 164.851562 248.828125 163.75 Z M 248.828125 163.75 " fill-opacity="1" fill-rule="evenodd"/><path fill="#592e83" d="M 186.789062 165.445312 C 189.804688 175.335938 160.871094 173.355469 160.28125 168.261719 C 159.457031 161.167969 181.199219 164.085938 186.789062 165.445312 Z M 186.789062 165.445312 " fill-opacity="1" fill-rule="evenodd"/><path fill="#592e83" d="M 249.390625 178.414062 C 254.605469 175.8125 268.132812 177.851562 279.285156 177.851562 C 285.609375 177.851562 304.261719 175.96875 305.226562 181.234375 C 306.75 189.511719 286.902344 186.875 277.027344 186.875 C 268.542969 186.875 248.132812 189.164062 246.570312 184.054688 C 245.488281 180.5 247.578125 179.324219 249.390625 178.414062 Z M 249.390625 178.414062 " fill-opacity="1" fill-rule="evenodd"/><path fill="#592e83" d="M 144.488281 194.207031 C 144.136719 201 145.207031 209.214844 143.925781 215.074219 C 136.730469 218.121094 120.445312 217.160156 112.339844 215.640625 C 110.523438 208.050781 110.476562 193.332031 112.339844 185.746094 C 120.8125 180.546875 139.796875 188.886719 146.746094 181.800781 C 156.59375 183.078125 146.957031 191.679688 144.488281 194.207031 Z M 119.109375 195.898438 C 119.703125 194.425781 121.398438 194.054688 123.621094 194.207031 C 125.351562 195.859375 127.015625 197.578125 128.132812 199.847656 C 131.65625 197.730469 134.476562 194.910156 136.59375 191.386719 C 130.574219 191.386719 124.558594 191.386719 118.542969 191.386719 C 118.886719 192.734375 117.835938 195.480469 119.109375 195.898438 Z M 117.980469 209.4375 C 120.4375 209.070312 124.355469 210.171875 125.875 208.871094 C 123.007812 206.664062 121.582031 203.011719 118.542969 200.976562 C 117.632812 203.070312 118.074219 206.523438 117.980469 209.4375 Z M 130.953125 209.4375 C 133.207031 209.4375 135.464844 209.4375 137.71875 209.4375 C 137.355469 206.980469 138.457031 203.058594 137.15625 201.539062 C 135.277344 204.359375 132.449219 206.230469 130.953125 209.4375 Z M 130.953125 209.4375 " fill-opacity="1" fill-rule="evenodd"/><path fill="#592e83" d="M 163.101562 192.515625 C 181.769531 192.515625 201.871094 192.515625 222.320312 192.515625 C 227.738281 192.515625 237.769531 190.871094 238.113281 195.898438 C 238.488281 201.433594 227.9375 199.847656 221.191406 199.847656 C 214.5 199.847656 205.972656 199.847656 200.324219 199.847656 C 185.738281 199.847656 170.878906 201.15625 160.84375 198.15625 C 160.46875 195.148438 161.171875 193.21875 163.101562 192.515625 Z M 163.101562 192.515625 " fill-opacity="1" fill-rule="evenodd"/><path fill="#592e83" d="M 258.417969 193.078125 C 268.570312 191.765625 281.164062 192.890625 292.257812 192.515625 C 287.425781 204.222656 264.019531 203.644531 258.417969 193.078125 Z M 258.417969 193.078125 " fill-opacity="1" fill-rule="evenodd"/><path fill="#592e83" d="M 187.917969 208.871094 C 188.164062 210.808594 187.695312 212.03125 187.351562 213.382812 C 181.710938 213.925781 161.597656 217.722656 160.28125 211.691406 C 158.636719 204.175781 182.65625 206.648438 187.917969 208.871094 Z M 187.917969 208.871094 " fill-opacity="1" fill-rule="evenodd"/><path fill="#592e83" d="M 286.050781 207.742188 C 289.046875 217.390625 287.746094 231.921875 287.746094 246.097656 C 287.746094 252.574219 290.269531 281.75 284.359375 282.191406 C 278.894531 282.601562 280.414062 272.925781 280.414062 266.964844 C 280.414062 249.539062 279.972656 222.804688 280.976562 209.4375 C 281.335938 207.539062 283.679688 207.628906 286.050781 207.742188 Z M 286.050781 207.742188 " fill-opacity="1" fill-rule="evenodd"/><path fill="#592e83" d="M 144.488281 237.636719 C 145.203125 243.480469 145.953125 254.101562 143.925781 259.066406 C 135.886719 261.203125 121.847656 260.277344 112.902344 259.632812 C 109.921875 252.84375 110.742188 236.855469 112.339844 229.175781 C 120 227.058594 133.667969 227.949219 142.230469 228.613281 C 145.144531 224.855469 151.109375 223.148438 151.820312 228.046875 C 152.488281 232.652344 146.027344 233.773438 144.488281 237.636719 Z M 118.542969 238.761719 C 120.394531 238.730469 120.699219 237.160156 123.054688 237.636719 C 125.285156 238.980469 126.558594 241.277344 128.132812 243.277344 C 131.65625 241.160156 134.476562 238.339844 136.59375 234.816406 C 132.027344 235.410156 124.726562 234.425781 118.542969 234.816406 C 117.273438 236.035156 119.011719 236.738281 118.542969 238.761719 Z M 118.542969 253.425781 C 120.8125 253.066406 124.542969 254.160156 125.875 252.863281 C 123.515625 249.960938 121.054688 247.15625 118.542969 244.402344 C 118.542969 247.410156 118.542969 250.417969 118.542969 253.425781 Z M 130.386719 253.425781 C 132.832031 253.425781 135.277344 253.425781 137.71875 253.425781 C 137.355469 250.785156 138.457031 246.675781 137.15625 244.96875 C 134.960938 247.847656 132.324219 250.289062 130.386719 253.425781 Z M 130.386719 253.425781 " fill-opacity="1" fill-rule="evenodd"/><path fill="#592e83" d="M 163.101562 236.507812 C 186.84375 236.507812 211.992188 236.507812 237.546875 236.507812 C 243.511719 236.507812 258.050781 234.496094 258.417969 239.890625 C 258.828125 245.933594 243.15625 243.839844 235.855469 243.839844 C 217.835938 243.839844 201.425781 243.839844 183.40625 243.839844 C 175.015625 243.839844 164.984375 245.773438 160.28125 241.019531 C 160.242188 238.535156 161.628906 237.480469 163.101562 236.507812 Z M 163.101562 236.507812 " fill-opacity="1" fill-rule="evenodd"/><path fill="#592e83" d="M 163.101562 251.171875 C 178.710938 251.171875 196.679688 251.171875 213.296875 251.171875 C 218.324219 251.171875 224.292969 249.753906 227.394531 253.425781 C 227.695312 260.304688 219 258.503906 213.859375 258.503906 C 207.773438 258.503906 201.074219 258.503906 195.25 258.503906 C 182.613281 258.503906 168.460938 260.164062 160.84375 256.246094 C 160.421875 253.382812 161.40625 251.921875 163.101562 251.171875 Z M 163.101562 251.171875 " fill-opacity="1" fill-rule="evenodd"/></svg>