<svg xmlns="http://www.w3.org/2000/svg" xmlns:xlink="http://www.w3.org/1999/xlink" width="500" zoomAndPan="magnify" viewBox="0 0 375 374.999991" height="500" preserveAspectRatio="xMidYMid meet" version="1.0"><path fill="#592e83" d="M 102.347656 142.367188 C 116.367188 142.367188 127.789062 130.945312 127.789062 116.925781 C 127.789062 102.90625 116.367188 91.480469 102.347656 91.480469 C 88.328125 91.480469 76.902344 102.90625 76.902344 116.925781 C 76.902344 130.945312 88.328125 142.367188 102.347656 142.367188 Z M 102.347656 101.867188 C 110.652344 101.867188 117.402344 108.617188 117.402344 116.925781 C 117.402344 125.230469 110.652344 131.980469 102.347656 131.980469 C 94.039062 131.980469 87.289062 125.230469 87.289062 116.925781 C 87.289062 108.617188 94.039062 101.867188 102.347656 101.867188 Z M 102.347656 101.867188 " fill-opacity="1" fill-rule="nonzero"/><path fill="#592e83" d="M 348.460938 227 L 333.921875 227 C 310.558594 189.617188 311.597656 191.695312 310.558594 189.617188 L 299.652344 160.019531 C 303.289062 153.789062 303.808594 146.519531 301.730469 139.769531 L 291.867188 109.136719 L 310.558594 120.039062 C 311.078125 120.558594 321.980469 136.136719 327.171875 143.925781 C 330.808594 149.117188 337.039062 151.195312 342.75 149.636719 C 352.097656 147.039062 356.25 136.65625 351.058594 128.347656 C 335.480469 103.425781 336.519531 103.425781 332.882812 101.347656 C 301.210938 84.210938 290.308594 67.597656 271.617188 74.867188 C 243.058594 85.769531 212.421875 93.039062 206.191406 121.078125 L 201 146 L 178.671875 160.539062 C 177.632812 161.058594 177.117188 162.097656 176.078125 162.617188 C 175.039062 162.617188 174 162.617188 172.960938 163.136719 L 161.019531 167.289062 C 157.382812 168.847656 152.710938 167.808594 149.597656 165.210938 L 132.980469 151.710938 C 123.117188 143.40625 115.328125 147.039062 80.019531 143.925781 C 72.75 143.40625 64.960938 146.519531 60.289062 152.230469 L 30.171875 187.539062 C 29.132812 188.578125 28.097656 190.136719 28.097656 192.210938 L 21.347656 219.210938 C 18.75 228.558594 26.019531 237.386719 35.882812 236.867188 C 42.117188 236.867188 47.308594 232.710938 48.867188 227 L 58.210938 198.960938 L 72.75 183.386719 L 72.75 215.578125 C 72.75 219.210938 73.789062 222.847656 75.347656 225.960938 L 64.960938 319.425781 C 64.960938 322.019531 64.960938 324.097656 66 326.175781 L 45.75 326.175781 C 42.632812 326.175781 40.558594 328.25 40.558594 331.367188 C 40.558594 334.480469 42.632812 336.558594 45.75 336.558594 L 120.519531 336.558594 C 123.632812 336.558594 125.710938 334.480469 125.710938 331.367188 L 125.710938 286.195312 L 199.960938 286.195312 C 203.078125 286.195312 205.152344 284.117188 205.152344 281 L 205.152344 237.90625 L 348.460938 237.386719 C 351.578125 237.386719 353.652344 234.789062 353.652344 232.195312 C 353.652344 229.597656 351.578125 227 348.460938 227 Z M 262.269531 223.367188 L 252.921875 194.289062 C 252.402344 192.730469 252.921875 190.65625 255 189.617188 L 272.652344 179.230469 L 282 201.039062 C 282.519531 202.078125 283.039062 203.117188 283.558594 204.15625 L 298.097656 227 L 261.75 227 C 262.789062 225.960938 262.789062 224.925781 262.269531 223.367188 Z M 321.980469 227 L 310.558594 227 L 292.902344 198.960938 C 292.382812 198.445312 292.382812 197.925781 291.867188 196.886719 L 282 173.519531 L 290.828125 168.847656 C 291.347656 168.847656 291.347656 168.328125 291.867188 167.808594 L 301.210938 192.730469 C 302.769531 197.40625 303.289062 197.925781 321.980469 227 Z M 207.75 153.789062 C 209.828125 152.230469 211.382812 150.15625 211.902344 147.558594 L 217.097656 122.636719 C 221.769531 100.308594 248.769531 95.117188 275.769531 84.210938 C 286.671875 80.058594 291.347656 89.40625 327.691406 110.175781 C 328.730469 111.210938 329.25 112.769531 342.75 134.058594 C 344.308594 136.65625 342.75 139.25 340.671875 139.769531 C 339.117188 140.289062 337.558594 139.769531 336.519531 138.210938 C 318.867188 113.289062 319.902344 113.289062 316.789062 111.730469 L 286.152344 93.558594 C 284.078125 92.519531 282 92.519531 280.441406 94.078125 C 278.882812 95.636719 277.847656 97.710938 278.882812 99.789062 L 292.382812 143.40625 C 294.460938 150.15625 291.347656 156.90625 285.632812 160.539062 L 249.808594 180.269531 C 243.578125 183.386719 240.980469 190.65625 243.058594 197.40625 L 252.402344 226.480469 C 252.402344 227 252.921875 227.519531 252.921875 227.519531 L 241.5 227.519531 L 230.078125 191.695312 C 227.480469 184.425781 230.078125 175.597656 237.347656 171.445312 L 258.632812 158.460938 C 260.710938 157.425781 261.75 154.828125 260.710938 152.230469 L 247.210938 112.25 C 246.691406 110.175781 244.617188 109.136719 242.539062 108.617188 C 240.460938 108.617188 238.382812 109.65625 237.347656 111.210938 L 211.382812 161.578125 C 201 166.25 194.769531 169.367188 190.617188 171.445312 C 190.097656 169.367188 189.058594 167.289062 188.019531 165.730469 Z M 50.421875 191.695312 C 49.382812 192.730469 48.347656 194.289062 47.828125 195.847656 L 39.519531 222.847656 C 39 224.40625 37.441406 225.445312 35.882812 225.445312 C 33.289062 225.445312 31.210938 223.367188 31.730469 220.769531 L 39 193.769531 L 69.117188 158.460938 C 71.710938 155.347656 76.382812 153.269531 80.539062 153.789062 C 116.882812 156.386719 121.558594 154.308594 127.269531 158.980469 L 143.882812 172.480469 C 149.597656 177.15625 157.902344 178.710938 165.171875 176.117188 L 177.117188 171.960938 C 178.671875 171.445312 180.75 172.480469 180.75 174.039062 C 180.75 175.597656 180.230469 176.636719 178.671875 177.15625 L 161.539062 183.386719 C 155.308594 185.460938 148.558594 184.425781 143.367188 180.789062 L 124.671875 167.808594 C 123.117188 166.769531 121.039062 166.769531 119.480469 167.289062 C 117.921875 168.328125 116.882812 169.886719 116.882812 171.960938 L 115.328125 214.539062 C 115.328125 217.136719 116.882812 219.210938 119.480469 219.730469 L 143.882812 225.960938 C 151.671875 228.039062 156.867188 235.308594 156.867188 243.617188 L 156.867188 276.847656 L 145.960938 276.847656 L 145.960938 252.960938 C 145.960938 246.210938 141.289062 240.5 134.539062 238.945312 L 94.558594 230.117188 C 87.808594 228.558594 83.132812 222.847656 83.132812 216.097656 L 83.132812 170.40625 C 83.132812 168.328125 81.578125 166.25 80.019531 165.730469 C 77.941406 165.210938 75.867188 165.730469 74.308594 167.289062 Z M 91.960938 239.460938 L 98.710938 241.019531 L 86.25 321.5 C 85.730469 324.097656 83.132812 326.175781 80.539062 326.175781 C 77.421875 326.175781 75.347656 323.058594 75.347656 320.460938 L 84.171875 236.347656 C 86.769531 237.90625 89.367188 238.945312 91.960938 239.460938 Z M 120.519531 276.328125 C 117.402344 276.328125 115.328125 278.40625 115.328125 281.519531 L 115.328125 326.695312 L 95.078125 326.695312 C 95.597656 325.65625 95.597656 324.617188 96.117188 323.578125 L 108.578125 243.617188 L 131.941406 248.808594 C 134.019531 249.328125 135.058594 250.886719 135.058594 252.960938 L 135.058594 276.847656 L 120.519531 276.847656 Z M 199.960938 227.519531 C 196.847656 227.519531 194.769531 229.597656 194.769531 232.710938 L 194.769531 275.808594 L 166.730469 275.808594 L 166.730469 243.097656 C 167.25 230.117188 158.941406 218.175781 145.960938 215.058594 L 125.710938 209.867188 L 126.230469 181.308594 L 136.617188 188.578125 C 144.402344 194.289062 154.789062 195.847656 164.132812 192.730469 L 181.789062 186.5 C 183.867188 185.980469 185.941406 184.425781 187.5 182.867188 C 193.210938 182.347656 196.847656 178.195312 215.539062 170.40625 C 217.617188 169.367188 219.171875 167.808594 220.210938 165.730469 L 240.980469 126.269531 L 249.289062 150.675781 L 231.632812 162.617188 C 220.730469 169.367188 216.058594 183.386719 220.210938 195.328125 L 230.597656 227.519531 Z M 199.960938 227.519531 " fill-opacity="1" fill-rule="nonzero"/><path fill="#592e83" d="M 266.421875 67.078125 C 269.539062 60.847656 270.058594 54.097656 267.980469 47.867188 C 263.828125 34.367188 249.808594 27.097656 236.308594 31.25 C 222.808594 35.40625 215.539062 49.945312 219.691406 62.925781 C 226.441406 84.730469 256.039062 87.328125 266.421875 67.078125 Z M 239.421875 41.117188 C 247.210938 38.519531 255.519531 43.195312 258.117188 50.980469 C 259.152344 54.617188 259.152344 58.769531 257.078125 62.40625 C 250.847656 74.347656 233.710938 72.789062 229.558594 59.808594 C 227.480469 52.019531 231.632812 43.710938 239.421875 41.117188 Z M 239.421875 41.117188 " fill-opacity="1" fill-rule="nonzero"/></svg>