<svg xmlns="http://www.w3.org/2000/svg" xmlns:xlink="http://www.w3.org/1999/xlink" width="500" zoomAndPan="magnify" viewBox="0 0 375 374.999991" height="500" preserveAspectRatio="xMidYMid meet" version="1.0"><defs><filter x="0%" y="0%" width="100%" height="100%" id="18ee804459"><feColorMatrix values="0 0 0 0 1 0 0 0 0 1 0 0 0 0 1 0 0 0 1 0" color-interpolation-filters="sRGB"/></filter><clipPath id="ff11f3cc86"><path d="M 68 209 L 209 209 L 209 363.214844 L 68 363.214844 Z M 68 209 " clip-rule="nonzero"/></clipPath><clipPath id="360237f732"><path d="M 166 209 L 307 209 L 307 363.214844 L 166 363.214844 Z M 166 209 " clip-rule="nonzero"/></clipPath><clipPath id="b5c55896be"><path d="M 39 11.464844 L 337 11.464844 L 337 309 L 39 309 Z M 39 11.464844 " clip-rule="nonzero"/></clipPath><clipPath id="63de256f9a"><path d="M 37.796875 11.464844 L 337.796875 11.464844 L 337.796875 363.214844 L 37.796875 363.214844 Z M 37.796875 11.464844 " clip-rule="nonzero"/></clipPath><mask id="6512059c75"><g filter="url(#18ee804459)"><rect x="-37.5" width="450" fill="#000000" y="-37.499999" height="449.999989" fill-opacity="0.12"/></g></mask><clipPath id="f919cc8481"><path d="M 0.359375 1 L 153 1 L 153 154 L 0.359375 154 Z M 0.359375 1 " clip-rule="nonzero"/></clipPath><clipPath id="4130b0e085"><path d="M 17 18 L 199 18 L 199 199.960938 L 17 199.960938 Z M 17 18 " clip-rule="nonzero"/></clipPath><clipPath id="828ffbe733"><rect x="0" width="200" y="0" height="200"/></clipPath></defs><g clip-path="url(#ff11f3cc86)"><path fill="#caa8f5" d="M 128.601562 363.535156 L 113.195312 323.96875 L 68.441406 319.957031 L 148.746094 209.09375 L 208.90625 252.667969 Z M 128.601562 363.535156 " fill-opacity="1" fill-rule="nonzero"/></g><g clip-path="url(#360237f732)"><path fill="#caa8f5" d="M 246.683594 363.535156 L 262.09375 323.96875 L 306.847656 319.957031 L 226.542969 209.09375 L 166.382812 252.667969 Z M 246.683594 363.535156 " fill-opacity="1" fill-rule="nonzero"/></g><g clip-path="url(#b5c55896be)"><path fill="#592e83" d="M 181.871094 308.378906 C 177.4375 308.378906 173.195312 307.003906 169.601562 304.40625 L 159.507812 297.089844 L 147.347656 299.839844 C 145.835938 300.183594 144.28125 300.355469 142.738281 300.355469 C 136.078125 300.355469 129.761719 297.140625 125.839844 291.757812 L 118.496094 281.683594 L 106.082031 280.539062 C 97.765625 279.773438 90.714844 274.148438 88.125 266.207031 L 84.253906 254.355469 L 72.800781 249.433594 C 65.128906 246.132812 60.164062 238.605469 60.152344 230.253906 L 60.132812 217.785156 L 50.761719 209.5625 C 44.484375 204.054688 42.089844 195.363281 44.65625 187.414062 L 48.492188 175.550781 L 42.121094 164.835938 C 37.855469 157.65625 38.261719 148.648438 43.160156 141.882812 L 50.472656 131.785156 L 47.726562 119.625 C 45.882812 111.480469 49.058594 103.039062 55.804688 98.121094 L 65.882812 90.777344 L 67.027344 78.359375 C 67.792969 70.046875 73.417969 62.996094 81.359375 60.402344 L 93.210938 56.535156 L 98.136719 45.082031 C 101.433594 37.40625 108.960938 32.441406 117.3125 32.429688 L 129.78125 32.414062 L 138.003906 23.042969 C 141.972656 18.515625 147.703125 15.921875 153.722656 15.921875 C 155.910156 15.921875 158.074219 16.265625 160.152344 16.9375 L 172.015625 20.773438 L 182.734375 14.402344 C 185.964844 12.480469 189.660156 11.464844 193.417969 11.464844 C 197.851562 11.464844 202.09375 12.839844 205.683594 15.441406 L 215.78125 22.753906 L 227.941406 20.003906 C 229.453125 19.664062 231.003906 19.492188 232.550781 19.492188 C 239.210938 19.492188 245.527344 22.703125 249.449219 28.085938 L 256.792969 38.164062 L 269.207031 39.304688 C 277.523438 40.074219 284.570312 45.699219 287.164062 53.636719 L 291.035156 65.488281 L 302.488281 70.414062 C 310.160156 73.710938 315.125 81.238281 315.136719 89.59375 L 315.15625 102.058594 L 324.527344 110.28125 C 330.800781 115.792969 333.199219 124.484375 330.628906 132.429688 L 326.796875 144.292969 L 333.167969 155.011719 C 337.433594 162.1875 337.027344 171.199219 332.125 177.960938 L 324.8125 188.058594 L 327.5625 200.21875 C 329.402344 208.363281 326.230469 216.804688 319.480469 221.726562 L 309.40625 229.070312 L 308.261719 241.484375 C 307.492188 249.800781 301.871094 256.851562 293.929688 259.441406 L 282.078125 263.3125 L 277.152344 274.765625 C 273.855469 282.4375 266.324219 287.402344 257.972656 287.414062 L 245.503906 287.433594 L 237.28125 296.804688 C 233.3125 301.328125 227.582031 303.921875 221.566406 303.921875 C 219.382812 303.921875 217.21875 303.578125 215.132812 302.90625 L 203.269531 299.074219 L 192.554688 305.445312 C 189.324219 307.367188 185.628906 308.378906 181.871094 308.378906 Z M 181.871094 308.378906 " fill-opacity="1" fill-rule="nonzero"/></g><path fill="#caa8f5" d="M 257.949219 279.519531 L 241.925781 279.542969 L 231.355469 291.585938 C 227.925781 295.496094 222.496094 296.992188 217.546875 295.390625 L 202.300781 290.460938 L 188.53125 298.648438 C 184.058594 301.304688 178.433594 301.050781 174.21875 298 L 161.246094 288.601562 L 145.617188 292.132812 C 140.542969 293.277344 135.273438 291.296875 132.207031 287.09375 L 122.769531 274.148438 L 106.816406 272.675781 C 101.636719 272.199219 97.234375 268.6875 95.621094 263.742188 L 90.648438 248.511719 L 75.929688 242.179688 C 71.152344 240.125 68.050781 235.425781 68.042969 230.222656 L 68.019531 214.199219 L 55.976562 203.632812 C 52.066406 200.203125 50.570312 194.773438 52.171875 189.824219 L 57.101562 174.578125 L 48.914062 160.804688 C 46.257812 156.332031 46.511719 150.707031 49.5625 146.496094 L 58.960938 133.519531 L 55.429688 117.890625 C 54.285156 112.816406 56.265625 107.546875 60.46875 104.484375 L 73.414062 95.046875 L 74.886719 79.09375 C 75.363281 73.914062 78.875 69.511719 83.820312 67.898438 L 99.050781 62.925781 L 105.382812 48.207031 C 107.4375 43.425781 112.136719 40.324219 117.339844 40.320312 L 133.363281 40.296875 L 143.929688 28.253906 C 147.359375 24.34375 152.789062 22.847656 157.738281 24.449219 L 172.984375 29.378906 L 186.757812 21.191406 C 191.230469 18.53125 196.855469 18.785156 201.066406 21.835938 L 214.042969 31.238281 L 229.671875 27.707031 C 234.746094 26.558594 240.015625 28.539062 243.078125 32.742188 L 252.515625 45.691406 L 268.46875 47.160156 C 273.648438 47.640625 278.050781 51.152344 279.664062 56.097656 L 284.636719 71.328125 L 299.355469 77.65625 C 304.136719 79.710938 307.238281 84.414062 307.242188 89.613281 L 307.265625 105.636719 L 319.308594 116.207031 C 323.21875 119.636719 324.714844 125.066406 323.113281 130.015625 L 318.183594 145.261719 L 326.371094 159.03125 C 329.03125 163.503906 328.777344 169.128906 325.726562 173.34375 L 316.324219 186.316406 L 319.855469 201.945312 C 321.003906 207.019531 319.023438 212.289062 314.820312 215.355469 L 301.871094 224.792969 L 300.402344 240.746094 C 299.921875 245.925781 296.410156 250.328125 291.464844 251.941406 L 276.234375 256.914062 L 269.90625 271.632812 C 267.851562 276.410156 263.148438 279.511719 257.949219 279.519531 Z M 257.949219 279.519531 " fill-opacity="1" fill-rule="nonzero"/><path fill="#caa8f5" d="M 292 159.921875 C 292 161.628906 291.957031 163.335938 291.875 165.042969 C 291.792969 166.75 291.664062 168.453125 291.5 170.152344 C 291.332031 171.851562 291.121094 173.546875 290.871094 175.234375 C 290.621094 176.925781 290.328125 178.605469 289.996094 180.28125 C 289.664062 181.957031 289.289062 183.621094 288.875 185.277344 C 288.457031 186.9375 288.003906 188.582031 287.507812 190.214844 C 287.011719 191.851562 286.476562 193.472656 285.898438 195.078125 C 285.324219 196.6875 284.710938 198.28125 284.058594 199.859375 C 283.402344 201.4375 282.710938 202.996094 281.980469 204.539062 C 281.25 206.085938 280.484375 207.609375 279.679688 209.117188 C 278.875 210.621094 278.03125 212.105469 277.152344 213.570312 C 276.277344 215.035156 275.363281 216.480469 274.414062 217.898438 C 273.464844 219.320312 272.480469 220.714844 271.464844 222.085938 C 270.445312 223.460938 269.394531 224.804688 268.3125 226.125 C 267.230469 227.445312 266.113281 228.738281 264.96875 230.003906 C 263.820312 231.269531 262.644531 232.503906 261.433594 233.714844 C 260.226562 234.921875 258.992188 236.097656 257.726562 237.246094 C 256.460938 238.390625 255.167969 239.507812 253.847656 240.589844 C 252.527344 241.675781 251.179688 242.722656 249.808594 243.742188 C 248.4375 244.757812 247.042969 245.742188 245.621094 246.691406 C 244.203125 247.640625 242.757812 248.554688 241.292969 249.429688 C 239.828125 250.308594 238.34375 251.152344 236.835938 251.957031 C 235.332031 252.761719 233.804688 253.527344 232.261719 254.257812 C 230.71875 254.988281 229.15625 255.679688 227.578125 256.335938 C 226.003906 256.988281 224.410156 257.601562 222.800781 258.179688 C 221.191406 258.753906 219.570312 259.289062 217.9375 259.785156 C 216.304688 260.28125 214.65625 260.734375 213 261.152344 C 211.34375 261.566406 209.679688 261.941406 208.003906 262.273438 C 206.328125 262.605469 204.644531 262.898438 202.957031 263.148438 C 201.269531 263.398438 199.574219 263.609375 197.875 263.777344 C 196.175781 263.941406 194.472656 264.070312 192.765625 264.152344 C 191.058594 264.238281 189.351562 264.277344 187.644531 264.277344 C 185.9375 264.277344 184.230469 264.238281 182.523438 264.152344 C 180.820312 264.070312 179.117188 263.941406 177.417969 263.777344 C 175.714844 263.609375 174.023438 263.398438 172.332031 263.148438 C 170.644531 262.898438 168.960938 262.605469 167.285156 262.273438 C 165.609375 261.941406 163.945312 261.566406 162.289062 261.152344 C 160.632812 260.734375 158.988281 260.28125 157.351562 259.785156 C 155.71875 259.289062 154.097656 258.753906 152.488281 258.179688 C 150.878906 257.601562 149.289062 256.988281 147.710938 256.335938 C 146.132812 255.679688 144.570312 254.988281 143.027344 254.257812 C 141.484375 253.527344 139.957031 252.761719 138.453125 251.957031 C 136.945312 251.152344 135.460938 250.308594 133.996094 249.429688 C 132.53125 248.554688 131.089844 247.640625 129.667969 246.691406 C 128.246094 245.742188 126.851562 244.757812 125.480469 243.742188 C 124.109375 242.722656 122.761719 241.675781 121.441406 240.589844 C 120.121094 239.507812 118.828125 238.390625 117.5625 237.246094 C 116.296875 236.097656 115.0625 234.921875 113.855469 233.714844 C 112.648438 232.503906 111.46875 231.269531 110.324219 230.003906 C 109.175781 228.738281 108.058594 227.445312 106.976562 226.125 C 105.894531 224.804688 104.84375 223.460938 103.824219 222.085938 C 102.808594 220.714844 101.824219 219.320312 100.875 217.898438 C 99.925781 216.480469 99.015625 215.035156 98.136719 213.570312 C 97.257812 212.105469 96.417969 210.621094 95.613281 209.117188 C 94.804688 207.609375 94.039062 206.085938 93.308594 204.539062 C 92.578125 202.996094 91.886719 201.4375 91.234375 199.859375 C 90.578125 198.28125 89.964844 196.6875 89.390625 195.078125 C 88.8125 193.472656 88.277344 191.851562 87.78125 190.214844 C 87.285156 188.582031 86.832031 186.9375 86.417969 185.277344 C 86 183.621094 85.628906 181.957031 85.292969 180.28125 C 84.960938 178.605469 84.667969 176.925781 84.417969 175.234375 C 84.167969 173.546875 83.960938 171.851562 83.792969 170.152344 C 83.625 168.453125 83.5 166.75 83.414062 165.042969 C 83.332031 163.335938 83.289062 161.628906 83.289062 159.921875 C 83.289062 158.214844 83.332031 156.507812 83.414062 154.800781 C 83.5 153.097656 83.625 151.394531 83.792969 149.695312 C 83.960938 147.996094 84.167969 146.300781 84.417969 144.609375 C 84.667969 142.921875 84.960938 141.238281 85.292969 139.5625 C 85.628906 137.890625 86 136.222656 86.417969 134.566406 C 86.832031 132.910156 87.285156 131.265625 87.78125 129.628906 C 88.277344 127.996094 88.8125 126.375 89.390625 124.765625 C 89.964844 123.160156 90.578125 121.566406 91.234375 119.988281 C 91.886719 118.410156 92.578125 116.847656 93.308594 115.304688 C 94.039062 113.761719 94.804688 112.234375 95.613281 110.730469 C 96.417969 109.222656 97.257812 107.738281 98.136719 106.273438 C 99.015625 104.808594 99.925781 103.367188 100.875 101.945312 C 101.824219 100.527344 102.808594 99.128906 103.824219 97.757812 C 104.84375 96.386719 105.894531 95.039062 106.976562 93.71875 C 108.058594 92.398438 109.175781 91.105469 110.324219 89.839844 C 111.46875 88.578125 112.648438 87.339844 113.855469 86.132812 C 115.0625 84.925781 116.296875 83.746094 117.5625 82.601562 C 118.828125 81.453125 120.121094 80.339844 121.441406 79.253906 C 122.761719 78.171875 124.109375 77.121094 125.480469 76.101562 C 126.851562 75.085938 128.246094 74.101562 129.667969 73.152344 C 131.089844 72.207031 132.53125 71.292969 133.996094 70.414062 C 135.460938 69.535156 136.945312 68.695312 138.453125 67.890625 C 139.957031 67.085938 141.484375 66.316406 143.027344 65.585938 C 144.570312 64.855469 146.132812 64.164062 147.710938 63.511719 C 149.289062 62.855469 150.878906 62.242188 152.488281 61.667969 C 154.097656 61.09375 155.71875 60.554688 157.351562 60.058594 C 158.988281 59.566406 160.632812 59.109375 162.289062 58.695312 C 163.945312 58.28125 165.609375 57.90625 167.285156 57.570312 C 168.960938 57.238281 170.644531 56.945312 172.332031 56.695312 C 174.023438 56.445312 175.714844 56.238281 177.417969 56.070312 C 179.117188 55.902344 180.820312 55.777344 182.523438 55.691406 C 184.230469 55.609375 185.9375 55.566406 187.644531 55.566406 C 189.351562 55.566406 191.058594 55.609375 192.765625 55.691406 C 194.472656 55.777344 196.175781 55.902344 197.875 56.070312 C 199.574219 56.238281 201.269531 56.445312 202.957031 56.695312 C 204.644531 56.945312 206.328125 57.238281 208.003906 57.570312 C 209.679688 57.90625 211.34375 58.28125 213 58.695312 C 214.65625 59.109375 216.304688 59.566406 217.9375 60.058594 C 219.570312 60.554688 221.191406 61.09375 222.800781 61.667969 C 224.410156 62.242188 226.003906 62.855469 227.578125 63.511719 C 229.15625 64.164062 230.71875 64.855469 232.261719 65.585938 C 233.804688 66.316406 235.332031 67.085938 236.835938 67.890625 C 238.34375 68.695312 239.828125 69.535156 241.292969 70.414062 C 242.757812 71.292969 244.203125 72.207031 245.621094 73.152344 C 247.042969 74.101562 248.4375 75.085938 249.808594 76.101562 C 251.179688 77.121094 252.527344 78.171875 253.847656 79.253906 C 255.167969 80.339844 256.460938 81.453125 257.726562 82.601562 C 258.992188 83.746094 260.226562 84.925781 261.433594 86.132812 C 262.644531 87.339844 263.820312 88.578125 264.96875 89.839844 C 266.113281 91.105469 267.230469 92.398438 268.3125 93.71875 C 269.394531 95.039062 270.445312 96.386719 271.464844 97.757812 C 272.480469 99.128906 273.464844 100.527344 274.414062 101.945312 C 275.363281 103.367188 276.277344 104.808594 277.152344 106.273438 C 278.03125 107.738281 278.875 109.222656 279.679688 110.730469 C 280.484375 112.234375 281.25 113.761719 281.980469 115.304688 C 282.710938 116.847656 283.402344 118.410156 284.058594 119.988281 C 284.710938 121.566406 285.324219 123.160156 285.898438 124.765625 C 286.476562 126.375 287.011719 127.996094 287.507812 129.628906 C 288.003906 131.265625 288.457031 132.910156 288.875 134.566406 C 289.289062 136.222656 289.664062 137.890625 289.996094 139.5625 C 290.328125 141.238281 290.621094 142.921875 290.871094 144.609375 C 291.121094 146.300781 291.332031 147.996094 291.5 149.695312 C 291.664062 151.394531 291.792969 153.097656 291.875 154.800781 C 291.957031 156.507812 292 158.214844 292 159.921875 Z M 292 159.921875 " fill-opacity="1" fill-rule="nonzero"/><g clip-path="url(#63de256f9a)"><path stroke-linecap="butt" transform="matrix(0.249852, 0, 0, 0.249852, 39.18288, 11.463134)" fill="none" stroke-linejoin="miter" d="M 1011.867727 594.186852 C 1011.867727 601.019024 1011.69575 607.851195 1011.36743 614.683366 C 1011.039111 621.515537 1010.52318 628.332074 1009.866541 635.132976 C 1009.194268 641.933879 1008.350018 648.719147 1007.349426 655.473147 C 1006.348833 662.242781 1005.176264 668.965513 1003.847352 675.67261 C 1002.51844 682.379707 1001.017551 689.039901 999.360319 695.668827 C 997.687454 702.313387 995.87388 708.89541 993.888329 715.43053 C 991.902778 721.981285 989.760884 728.469502 987.447014 734.895183 C 985.148778 741.336497 982.694199 747.715275 980.083278 754.031515 C 977.456723 760.347756 974.689459 766.585825 971.765852 772.761358 C 968.842246 778.952524 965.777931 785.049885 962.557274 791.084709 C 959.336617 797.103899 955.959617 803.044917 952.441908 808.907764 C 948.939834 814.770611 945.281418 820.555287 941.482293 826.230523 C 937.683168 831.921393 933.743335 837.502824 929.678427 842.990449 C 925.597886 848.493708 921.39227 853.871893 917.061581 859.156272 C 912.730891 864.440652 908.259493 869.615592 903.678655 874.681091 C 899.082183 879.746591 894.376271 884.687017 889.529651 889.533637 C 884.698665 894.364623 879.758239 899.070535 874.692739 903.667007 C 869.627239 908.247845 864.452299 912.719243 859.16792 917.049933 C 853.88354 921.396257 848.489721 925.586238 843.002096 929.66678 C 837.514471 933.731687 831.933041 937.671521 826.242171 941.470646 C 820.566935 945.26977 814.782259 948.928187 808.919412 952.430261 C 803.056565 955.947969 797.115546 959.324969 791.080722 962.545627 C 785.061533 965.766284 778.948537 968.830599 772.773005 971.754205 C 766.597473 974.677811 760.343769 977.445075 754.027529 980.071631 C 747.726922 982.682552 741.348145 985.137131 734.90683 987.451001 C 728.465515 989.749237 721.977298 991.89113 715.442178 993.876681 C 708.907057 995.862232 702.3094 997.675806 695.680474 999.348672 C 689.051549 1001.005903 682.391354 1002.506792 675.684257 1003.835704 C 668.97716 1005.164616 662.238795 1006.337186 655.484795 1007.337778 C 648.730795 1008.338371 641.945526 1009.182621 635.144624 1009.854894 C 628.343721 1010.511533 621.527184 1011.027463 614.695013 1011.355783 C 607.862842 1011.699737 601.030671 1011.856079 594.1985 1011.856079 C 587.366329 1011.856079 580.534158 1011.699737 573.701986 1011.355783 C 566.885449 1011.027463 560.068913 1010.511533 553.26801 1009.854894 C 546.451473 1009.182621 539.681839 1008.338371 532.912205 1007.337778 C 526.158205 1006.337186 519.419839 1005.164616 512.712742 1003.835704 C 506.005645 1002.506792 499.345451 1001.005903 492.716525 999.348672 C 486.087599 997.675806 479.505576 995.862232 472.954822 993.876681 C 466.419702 991.89113 459.931484 989.749237 453.49017 987.451001 C 447.048855 985.137131 440.685712 982.682552 434.369471 980.071631 C 428.05323 977.445075 421.799527 974.677811 415.623995 971.754205 C 409.448462 968.830599 403.335467 965.766284 397.316277 962.545627 C 391.281453 959.324969 385.340435 955.947969 379.477588 952.430261 C 373.614741 948.928187 367.845699 945.26977 362.154829 941.470646 C 356.463959 937.671521 350.882528 933.731687 345.394904 929.66678 C 339.907279 925.586238 334.513459 921.396257 329.22908 917.049933 C 323.9447 912.719243 318.769761 908.247845 313.704261 903.667007 C 308.638761 899.070535 303.698335 894.364623 298.867349 889.533637 C 294.036363 884.687017 289.314817 879.746591 284.733979 874.681091 C 280.137507 869.615592 275.666109 864.440652 271.335419 859.156272 C 267.004729 853.871893 262.799114 848.493708 258.718572 842.990449 C 254.653665 837.502824 250.713832 831.921393 246.914707 826.230523 C 243.115582 820.555287 239.472799 814.770611 235.955091 808.907764 C 232.437383 803.044917 229.076017 797.103899 225.85536 791.084709 C 222.619068 785.049885 219.554754 778.952524 216.631147 772.761358 C 213.707541 766.585825 210.940277 760.347756 208.329356 754.031515 C 205.7028 747.715275 203.248222 741.336497 200.949985 734.895183 C 198.636115 728.469502 196.494222 721.981285 194.508671 715.43053 C 192.52312 708.89541 190.709546 702.313387 189.052314 695.668827 C 187.379449 689.039901 185.894194 682.379707 184.549648 675.67261 C 183.220736 668.965513 182.048166 662.242781 181.047574 655.473147 C 180.046981 648.719147 179.218366 641.933879 178.546092 635.132976 C 177.873819 628.332074 177.373523 621.515537 177.029569 614.683366 C 176.70125 607.851195 176.529273 601.019024 176.529273 594.186852 C 176.529273 587.354681 176.70125 580.52251 177.029569 573.690339 C 177.373523 566.873802 177.873819 560.057265 178.546092 553.256363 C 179.218366 546.45546 180.046981 539.670192 181.047574 532.900557 C 182.048166 526.146558 183.220736 519.408192 184.549648 512.701095 C 185.894194 506.009632 187.379449 499.333804 189.052314 492.704878 C 190.709546 486.075952 192.52312 479.493929 194.508671 472.943175 C 196.494222 466.408054 198.636115 459.919837 200.949985 453.478522 C 203.248222 447.052842 205.7028 440.674064 208.329356 434.357824 C 210.940277 428.041583 213.707541 421.787879 216.631147 415.612347 C 219.554754 409.436815 222.619068 403.32382 225.85536 397.30463 C 229.076017 391.269806 232.437383 385.328788 235.955091 379.465941 C 239.472799 373.603093 243.115582 367.834052 246.914707 362.143182 C 250.713832 356.467946 254.653665 350.870881 258.718572 345.383256 C 262.799114 339.895631 267.004729 334.501812 271.335419 329.217432 C 275.666109 323.933053 280.137507 318.758113 284.733979 313.692613 C 289.314817 308.642748 294.036363 303.686688 298.867349 298.855702 C 303.698335 294.024716 308.638761 289.303169 313.704261 284.722332 C 318.769761 280.125859 323.9447 275.670096 329.22908 271.323772 C 334.513459 266.993082 339.907279 262.787466 345.394904 258.706925 C 350.882528 254.642017 356.463959 250.702184 362.154829 246.903059 C 367.845699 243.119569 373.614741 239.461152 379.477588 235.943444 C 385.340435 232.425735 391.281453 229.06437 397.316277 225.843712 C 403.335467 222.623055 409.448462 219.543106 415.623995 216.6195 C 421.799527 213.695893 428.05323 210.928629 434.369471 208.317708 C 440.685712 205.691153 447.048855 203.236574 453.49017 200.938338 C 459.931484 198.640102 466.419702 196.482574 472.954822 194.497023 C 479.505576 192.527107 486.087599 190.697898 492.716525 189.040667 C 499.345451 187.383436 506.005645 185.882547 512.712742 184.538 C 519.419839 183.209088 526.158205 182.036519 532.912205 181.035926 C 539.681839 180.035334 546.451473 179.206718 553.26801 178.534445 C 560.068913 177.862172 566.885449 177.361876 573.701986 177.017922 C 580.534158 176.689602 587.366329 176.517626 594.1985 176.517626 C 601.030671 176.517626 607.862842 176.689602 614.695013 177.017922 C 621.527184 177.361876 628.343721 177.862172 635.144624 178.534445 C 641.945526 179.206718 648.730795 180.035334 655.484795 181.035926 C 662.238795 182.036519 668.97716 183.209088 675.684257 184.538 C 682.391354 185.882547 689.051549 187.383436 695.680474 189.040667 C 702.3094 190.697898 708.907057 192.527107 715.442178 194.497023 C 721.977298 196.482574 728.465515 198.640102 734.90683 200.938338 C 741.348145 203.236574 747.726922 205.691153 754.027529 208.317708 C 760.343769 210.928629 766.597473 213.695893 772.773005 216.6195 C 778.948537 219.543106 785.061533 222.623055 791.080722 225.843712 C 797.115546 229.06437 803.056565 232.425735 808.919412 235.943444 C 814.782259 239.461152 820.566935 243.119569 826.242171 246.903059 C 831.933041 250.702184 837.514471 254.642017 843.002096 258.706925 C 848.489721 262.787466 853.88354 266.993082 859.16792 271.323772 C 864.452299 275.670096 869.627239 280.125859 874.692739 284.722332 C 879.758239 289.303169 884.698665 294.024716 889.529651 298.855702 C 894.376271 303.686688 899.082183 308.642748 903.678655 313.692613 C 908.259493 318.758113 912.730891 323.933053 917.061581 329.217432 C 921.39227 334.501812 925.597886 339.895631 929.678427 345.383256 C 933.743335 350.870881 937.683168 356.467946 941.482293 362.143182 C 945.281418 367.834052 948.939834 373.603093 952.441908 379.465941 C 955.959617 385.328788 959.336617 391.269806 962.557274 397.30463 C 965.777931 403.32382 968.842246 409.436815 971.765852 415.612347 C 974.689459 421.787879 977.456723 428.041583 980.083278 434.357824 C 982.694199 440.674064 985.148778 447.052842 987.447014 453.478522 C 989.760884 459.919837 991.902778 466.408054 993.888329 472.943175 C 995.87388 479.493929 997.687454 486.075952 999.360319 492.704878 C 1001.017551 499.333804 1002.51844 506.009632 1003.847352 512.701095 C 1005.176264 519.408192 1006.348833 526.146558 1007.349426 532.900557 C 1008.350018 539.670192 1009.194268 546.45546 1009.866541 553.256363 C 1010.52318 560.057265 1011.039111 566.873802 1011.36743 573.690339 C 1011.69575 580.52251 1011.867727 587.354681 1011.867727 594.186852 Z M 1011.867727 594.186852 " stroke="#ffffff" stroke-width="33.709999" stroke-opacity="1" stroke-miterlimit="10"/></g><path fill="#592e83" d="M 208.730469 133.109375 L 188.359375 126.113281 L 168.328125 134.039062 L 168.683594 112.5 L 154.957031 95.902344 L 175.550781 89.582031 L 187.097656 71.398438 L 199.46875 89.03125 L 220.332031 94.394531 L 207.386719 111.609375 Z M 208.730469 133.109375 " fill-opacity="1" fill-rule="nonzero"/><path fill="#592e83" d="M 119.226562 145.714844 L 127.972656 145.714844 C 128.324219 145.714844 128.382812 145.773438 128.5 146.070312 C 130.203125 151.878906 135.25 169.550781 136.367188 175.066406 L 136.421875 175.066406 C 137.65625 170.015625 143.410156 152.054688 145.171875 146.125 C 145.226562 145.832031 145.34375 145.714844 145.640625 145.714844 L 154.152344 145.714844 C 154.445312 145.714844 154.503906 145.773438 154.5625 146.066406 L 156.144531 183.636719 C 156.203125 183.988281 156.027344 184.105469 155.734375 184.105469 L 149.75 184.105469 C 149.457031 184.105469 149.339844 184.046875 149.339844 183.695312 C 148.988281 171.074219 148.871094 154.167969 148.929688 150.648438 L 148.8125 150.648438 C 147.582031 156.046875 141.652344 175.714844 139.304688 183.695312 C 139.246094 184.046875 139.011719 184.105469 138.777344 184.105469 L 133.316406 184.105469 C 132.964844 184.105469 132.847656 184.046875 132.789062 183.695312 C 130.324219 174.773438 125.6875 157.398438 124.101562 150.589844 L 123.984375 150.589844 C 123.984375 156.046875 123.398438 171.25 122.871094 183.695312 C 122.871094 184.046875 122.753906 184.105469 122.402344 184.105469 L 117 184.105469 C 116.648438 184.105469 116.53125 184.046875 116.59375 183.695312 L 118.824219 146.066406 C 118.824219 145.714844 119 145.714844 119.234375 145.714844 Z M 119.226562 145.714844 " fill-opacity="1" fill-rule="nonzero"/><path fill="#592e83" d="M 198.0625 164.621094 C 198.117188 177.066406 191.136719 184.636719 180.921875 184.636719 C 170.179688 184.636719 163.78125 176.539062 163.78125 164.796875 C 163.78125 153.058594 170.765625 145.132812 180.980469 145.132812 C 191.78125 145.132812 198.003906 153.644531 198.0625 164.621094 Z M 181.15625 178.765625 C 187.554688 178.765625 191.253906 173.25 191.253906 164.792969 C 191.195312 156.398438 187.378906 151.058594 180.863281 151.058594 C 174.933594 151.058594 170.59375 155.8125 170.59375 164.792969 C 170.59375 172.601562 174.234375 178.765625 181.160156 178.765625 Z M 181.15625 178.765625 " fill-opacity="1" fill-rule="nonzero"/><path fill="#592e83" d="M 205.285156 182.640625 C 204.992188 182.464844 204.875 182.230469 204.875 181.816406 L 204.875 176.125 C 204.875 175.832031 205.109375 175.714844 205.34375 175.886719 C 208.335938 177.824219 211.917969 178.765625 215.207031 178.765625 C 219.960938 178.765625 221.957031 176.769531 221.957031 174.125 C 221.957031 171.894531 220.609375 170.195312 216.144531 168.140625 L 213.5625 166.964844 C 206.695312 163.855469 204.933594 160.273438 204.933594 155.929688 C 204.933594 149.824219 209.453125 145.128906 217.90625 145.128906 C 221.542969 145.128906 224.59375 145.65625 226.417969 146.59375 C 226.652344 146.714844 226.710938 146.949219 226.710938 147.300781 L 226.710938 152.640625 C 226.710938 152.875 226.535156 153.113281 226.238281 152.875 C 224.125 151.644531 221.074219 150.996094 217.90625 150.996094 C 212.914062 150.996094 211.332031 153.285156 211.332031 155.398438 C 211.332031 157.515625 212.621094 159.15625 217.140625 161.210938 L 219.3125 162.152344 C 226.59375 165.4375 228.648438 169.078125 228.648438 173.539062 C 228.648438 180.230469 223.484375 184.632812 215.027344 184.632812 C 211.035156 184.632812 207.574219 183.929688 205.285156 182.636719 Z M 205.285156 182.640625 " fill-opacity="1" fill-rule="nonzero"/><path fill="#592e83" d="M 243.910156 151.703125 L 232.582031 151.703125 C 232.289062 151.703125 232.226562 151.53125 232.289062 151.234375 L 232.992188 146.128906 C 233.050781 145.835938 233.167969 145.71875 233.519531 145.71875 L 261.167969 145.71875 C 261.519531 145.71875 261.636719 145.835938 261.695312 146.1875 L 262.222656 151.179688 C 262.28125 151.53125 262.105469 151.703125 261.8125 151.703125 L 250.542969 151.703125 L 250.542969 183.578125 C 250.542969 183.929688 250.367188 184.105469 250.074219 184.105469 L 244.4375 184.105469 C 244.085938 184.164062 243.910156 183.988281 243.910156 183.636719 Z M 243.910156 151.703125 " fill-opacity="1" fill-rule="nonzero"/><path fill="#592e83" d="M 116.542969 195.320312 C 116.542969 195.148438 116.578125 195.078125 116.71875 195.078125 C 118.046875 195.007812 120.417969 194.972656 122.796875 194.972656 C 129.21875 194.972656 131.769531 198.570312 131.769531 202.445312 C 131.769531 207.890625 127.617188 210.304688 122.515625 210.304688 L 120.457031 210.304688 L 120.457031 217.636719 C 120.457031 217.8125 120.386719 217.878906 120.175781 217.878906 L 116.753906 217.878906 C 116.613281 217.878906 116.542969 217.8125 116.542969 217.636719 Z M 120.457031 206.808594 C 121.015625 206.84375 121.46875 206.84375 122.515625 206.84375 C 125.414062 206.84375 127.859375 205.796875 127.859375 202.550781 C 127.859375 199.929688 126.042969 198.394531 122.898438 198.394531 C 121.78125 198.394531 120.835938 198.464844 120.453125 198.5 L 120.453125 206.808594 Z M 120.457031 206.808594 " fill-opacity="1" fill-rule="nonzero"/><path fill="#592e83" d="M 156.074219 206.285156 C 156.109375 213.6875 151.953125 218.191406 145.878906 218.191406 C 139.484375 218.191406 135.679688 213.375 135.679688 206.390625 C 135.679688 199.40625 139.835938 194.691406 145.914062 194.691406 C 152.335938 194.691406 156.039062 199.753906 156.074219 206.285156 Z M 146.015625 214.699219 C 149.824219 214.699219 152.023438 211.417969 152.023438 206.390625 C 151.988281 201.394531 149.71875 198.21875 145.84375 198.21875 C 142.3125 198.21875 139.730469 201.046875 139.730469 206.390625 C 139.730469 211.035156 141.894531 214.699219 146.015625 214.699219 Z M 146.015625 214.699219 " fill-opacity="1" fill-rule="nonzero"/><path fill="#592e83" d="M 160.964844 195.320312 C 160.964844 195.148438 161 195.078125 161.136719 195.078125 C 162.464844 195.007812 164.839844 194.972656 167.214844 194.972656 C 173.636719 194.972656 176.1875 198.570312 176.1875 202.445312 C 176.1875 207.890625 172.035156 210.304688 166.933594 210.304688 L 164.875 210.304688 L 164.875 217.636719 C 164.875 217.8125 164.804688 217.878906 164.597656 217.878906 L 161.171875 217.878906 C 161.03125 217.878906 160.964844 217.8125 160.964844 217.636719 Z M 164.875 206.808594 C 165.433594 206.84375 165.886719 206.84375 166.933594 206.84375 C 169.832031 206.84375 172.277344 205.796875 172.277344 202.550781 C 172.277344 199.929688 170.460938 198.394531 167.316406 198.394531 C 166.199219 198.394531 165.253906 198.464844 164.875 198.5 Z M 164.875 206.808594 " fill-opacity="1" fill-rule="nonzero"/><path fill="#592e83" d="M 184.8125 209.324219 C 184.8125 212.640625 186.457031 214.699219 189.632812 214.699219 C 192.253906 214.699219 194.242188 213.410156 194.242188 209.253906 L 194.242188 195.320312 C 194.242188 195.113281 194.3125 195.042969 194.523438 195.042969 L 197.910156 195.042969 C 198.121094 195.042969 198.191406 195.113281 198.191406 195.320312 L 198.191406 209.464844 C 198.191406 215.785156 194.316406 218.191406 189.496094 218.191406 C 184.292969 218.191406 180.90625 215.46875 180.90625 209.636719 L 180.90625 195.320312 C 180.90625 195.113281 180.941406 195.042969 181.152344 195.042969 L 184.574219 195.042969 C 184.785156 195.042969 184.820312 195.113281 184.820312 195.285156 L 184.820312 209.324219 Z M 184.8125 209.324219 " fill-opacity="1" fill-rule="nonzero"/><path fill="#592e83" d="M 204.300781 217.878906 C 204.054688 217.878906 204.019531 217.773438 204.019531 217.527344 L 204.019531 195.320312 C 204.019531 195.148438 204.054688 195.042969 204.265625 195.042969 L 207.722656 195.042969 C 207.898438 195.042969 207.933594 195.113281 207.933594 195.285156 L 207.933594 214.316406 L 217.78125 214.316406 C 217.953125 214.316406 218.023438 214.421875 217.988281 214.5625 L 217.464844 217.636719 C 217.429688 217.847656 217.289062 217.878906 217.148438 217.878906 Z M 204.300781 217.878906 " fill-opacity="1" fill-rule="nonzero"/><path fill="#592e83" d="M 226.40625 211.628906 L 224.484375 217.636719 C 224.449219 217.8125 224.34375 217.878906 224.132812 217.878906 L 220.921875 217.878906 C 220.675781 217.878906 220.605469 217.777344 220.675781 217.566406 L 227.554688 197.03125 C 227.660156 196.683594 227.761719 196.371094 227.796875 195.25 C 227.796875 195.113281 227.867188 195.042969 228.007812 195.042969 L 232.546875 195.042969 C 232.722656 195.042969 232.757812 195.078125 232.792969 195.214844 L 240.441406 217.597656 C 240.511719 217.773438 240.476562 217.878906 240.265625 217.878906 L 236.636719 217.878906 C 236.460938 217.878906 236.390625 217.808594 236.320312 217.667969 L 234.328125 211.628906 L 226.402344 211.628906 Z M 233.316406 208.066406 C 232.621094 205.726562 230.980469 200.804688 230.347656 198.359375 L 230.316406 198.359375 C 229.753906 200.664062 228.464844 204.785156 227.417969 208.066406 Z M 233.316406 208.066406 " fill-opacity="1" fill-rule="nonzero"/><path fill="#592e83" d="M 244.457031 217.878906 C 244.25 217.878906 244.214844 217.808594 244.214844 217.597656 L 244.214844 195.355469 C 244.214844 195.214844 244.25 195.078125 244.421875 195.078125 C 246.761719 195.007812 248.300781 194.972656 250.921875 194.972656 C 256.261719 194.972656 259.476562 197.34375 259.476562 201.746094 C 259.476562 204.820312 257.484375 206.914062 255.074219 207.820312 C 256.191406 209.429688 260.242188 215.679688 261.257812 217.527344 C 261.359375 217.703125 261.394531 217.878906 261.1875 217.878906 L 257.171875 217.878906 C 256.890625 217.878906 256.820312 217.808594 256.714844 217.703125 C 255.738281 216.097656 253.332031 212.046875 251.792969 209.535156 C 251.550781 209.113281 251.375 208.9375 250.992188 208.9375 L 248.058594 208.9375 L 248.058594 217.632812 C 248.058594 217.808594 247.988281 217.878906 247.8125 217.878906 Z M 250.988281 205.554688 C 253.851562 205.554688 255.527344 204.191406 255.527344 201.957031 C 255.527344 199.585938 253.746094 198.394531 250.777344 198.394531 C 249.660156 198.394531 248.613281 198.464844 248.054688 198.5 L 248.054688 205.554688 Z M 250.988281 205.554688 " fill-opacity="1" fill-rule="nonzero"/><g mask="url(#6512059c75)"><g transform="matrix(1, 0, 0, 1, 81, 53)"><g clip-path="url(#828ffbe733)"><g clip-path="url(#f919cc8481)"><path fill="#592e83" d="M 152.734375 12.804688 L 12.199219 153.335938 C 5.027344 139.515625 0.871094 123.882812 0.578125 107.304688 L 106.699219 1.183594 C 123.277344 1.476562 138.910156 5.636719 152.734375 12.804688 Z M 152.734375 12.804688 " fill-opacity="1" fill-rule="nonzero"/></g><g clip-path="url(#4130b0e085)"><path fill="#592e83" d="M 198.96875 60.566406 L 59.953125 199.578125 C 42.664062 191.324219 28.015625 178.453125 17.585938 162.554688 L 161.945312 18.199219 C 177.84375 28.617188 190.710938 43.277344 198.96875 60.566406 Z M 198.96875 60.566406 " fill-opacity="1" fill-rule="nonzero"/></g></g></g></g></svg>