<svg xmlns="http://www.w3.org/2000/svg" xmlns:xlink="http://www.w3.org/1999/xlink" width="500" zoomAndPan="magnify" viewBox="0 0 375 374.999991" height="500" preserveAspectRatio="xMidYMid meet" version="1.0"><defs><clipPath id="b8a9cd22b5"><path d="M 18.75 139 L 309 139 L 309 305.457031 L 18.75 305.457031 Z M 18.75 139 " clip-rule="nonzero"/></clipPath><clipPath id="f154d44d10"><path d="M 66 93 L 356.25 93 L 356.25 255 L 66 255 Z M 66 93 " clip-rule="nonzero"/></clipPath></defs><g clip-path="url(#b8a9cd22b5)"><path fill="#592e83" d="M 85.742188 305.277344 C 65.046875 305.277344 44.871094 304.011719 24.03125 301.371094 C 21.003906 300.984375 18.75 298.417969 18.75 295.378906 L 18.75 150.710938 C 18.75 148.988281 19.496094 147.335938 20.785156 146.191406 C 22.078125 145.046875 23.789062 144.503906 25.523438 144.734375 C 45.871094 147.300781 65.601562 148.542969 85.804688 148.542969 C 113.359375 148.542969 138.515625 146.191406 162.839844 143.925781 C 187.441406 141.613281 212.871094 139.238281 241.003906 139.238281 C 261.726562 139.238281 281.902344 140.515625 302.730469 143.132812 C 305.78125 143.503906 308.035156 146.070312 308.035156 149.109375 L 308.035156 293.753906 C 308.035156 295.5 307.277344 297.128906 305.988281 298.273438 C 304.695312 299.429688 302.972656 299.972656 301.25 299.730469 C 280.890625 297.152344 261.160156 295.933594 240.957031 295.933594 C 213.390625 295.933594 188.222656 298.273438 163.898438 300.574219 C 139.308594 302.863281 113.875 305.277344 85.742188 305.277344 Z M 30.804688 290.039062 C 49.28125 292.183594 67.300781 293.222656 85.730469 293.222656 C 113.296875 293.222656 138.464844 290.871094 162.789062 288.582031 C 187.402344 286.277344 212.824219 283.894531 240.957031 283.894531 C 259.421875 283.894531 277.480469 284.90625 295.957031 286.976562 L 295.957031 154.460938 C 277.480469 152.328125 259.460938 151.292969 240.992188 151.292969 C 213.425781 151.292969 188.257812 153.640625 163.933594 155.933594 C 139.332031 158.222656 113.914062 160.609375 85.792969 160.609375 C 67.363281 160.609375 49.304688 159.597656 30.804688 157.511719 Z M 30.804688 290.039062 " fill-opacity="1" fill-rule="nonzero"/></g><path fill="#592e83" d="M 326.117188 278.421875 C 322.800781 278.421875 320.089844 275.71875 320.089844 272.394531 L 320.089844 133.078125 C 267.875 127.074219 227.335938 130.871094 188.101562 134.550781 C 146.867188 138.40625 104.234375 142.382812 48.136719 135.320312 C 44.847656 134.898438 42.507812 131.886719 42.90625 128.582031 C 43.316406 125.292969 46.292969 122.941406 49.644531 123.351562 C 104.476562 130.269531 146.410156 126.328125 186.992188 122.542969 C 228.179688 118.6875 270.777344 114.707031 326.886719 121.761719 C 329.902344 122.144531 332.167969 124.699219 332.167969 127.738281 L 332.167969 272.394531 C 332.144531 275.71875 329.429688 278.421875 326.117188 278.421875 Z M 326.117188 278.421875 " fill-opacity="1" fill-rule="nonzero"/><g clip-path="url(#f154d44d10)"><path fill="#592e83" d="M 350.222656 254.519531 C 346.910156 254.519531 344.195312 251.816406 344.195312 248.492188 L 344.195312 109.175781 C 291.980469 103.171875 251.445312 106.96875 212.199219 110.632812 C 170.988281 114.492188 128.339844 118.480469 72.242188 111.40625 C 68.941406 110.996094 66.589844 107.972656 67 104.667969 C 67.421875 101.378906 70.375 99.039062 73.738281 99.4375 C 128.558594 106.34375 170.492188 102.425781 211.066406 98.628906 C 252.289062 94.761719 294.875 90.78125 350.96875 97.832031 C 353.996094 98.207031 356.25 100.773438 356.25 103.8125 L 356.25 248.457031 C 356.25 251.816406 353.539062 254.519531 350.222656 254.519531 Z M 350.222656 254.519531 " fill-opacity="1" fill-rule="nonzero"/></g><path fill="#592e83" d="M 85.742188 281.167969 C 73.21875 281.167969 61.011719 280.675781 48.414062 279.660156 C 45.097656 279.410156 42.628906 276.480469 42.894531 273.164062 C 43.160156 269.875 46.027344 267.390625 49.390625 267.65625 C 61.671875 268.644531 73.570312 269.113281 85.753906 269.113281 C 89.082031 269.113281 91.78125 271.839844 91.78125 275.140625 C 91.769531 278.457031 89.058594 281.167969 85.742188 281.167969 Z M 85.742188 281.167969 " fill-opacity="1" fill-rule="nonzero"/><path fill="#592e83" d="M 277.902344 176.882812 C 277.734375 176.882812 277.601562 176.882812 277.40625 176.867188 C 265.210938 175.878906 253.324219 175.398438 241.003906 175.398438 C 237.691406 175.398438 234.980469 172.699219 234.980469 169.371094 C 234.980469 166.042969 237.691406 163.34375 241.003906 163.34375 C 253.625 163.34375 265.847656 163.839844 278.371094 164.839844 C 281.6875 165.117188 284.15625 168.023438 283.90625 171.335938 C 283.675781 174.480469 281.011719 176.882812 277.902344 176.882812 Z M 277.902344 176.882812 " fill-opacity="1" fill-rule="nonzero"/><path fill="#592e83" d="M 157.871094 248.890625 C 146.214844 248.890625 138.066406 241.667969 138.066406 231.375 C 138.066406 228.058594 140.769531 225.347656 144.09375 225.347656 C 147.421875 225.347656 150.121094 228.058594 150.121094 231.375 C 150.121094 236.136719 154.980469 236.835938 157.871094 236.835938 C 160.765625 236.835938 165.621094 236.101562 165.621094 231.375 C 165.621094 228.578125 165.621094 228.132812 157.390625 224.09375 L 153.015625 221.914062 C 145 217.949219 138.082031 214.558594 138.082031 203.832031 C 138.082031 193.464844 146.230469 186.222656 157.882812 186.222656 C 169.433594 186.222656 177.496094 193.464844 177.496094 203.832031 C 177.496094 207.160156 174.796875 209.859375 171.46875 209.859375 C 168.140625 209.859375 165.441406 207.160156 165.441406 203.832031 C 165.441406 199.253906 161.332031 198.277344 157.882812 198.277344 C 154.992188 198.277344 150.132812 199 150.132812 203.832031 C 150.132812 206.628906 150.132812 207.050781 158.355469 211.101562 L 162.742188 213.292969 C 170.769531 217.25 177.699219 220.648438 177.699219 231.375 C 177.6875 241.667969 169.527344 248.890625 157.871094 248.890625 Z M 157.871094 248.890625 " fill-opacity="1" fill-rule="nonzero"/><path fill="#592e83" d="M 157.367188 187.453125 C 155.800781 187.453125 154.230469 186.863281 153.148438 185.644531 C 151.941406 184.570312 151.339844 183.003906 151.339844 181.425781 C 151.339844 179.859375 151.941406 178.292969 153.148438 177.207031 C 155.316406 174.917969 159.292969 174.917969 161.585938 177.207031 C 162.789062 178.292969 163.394531 179.859375 163.394531 181.425781 C 163.394531 182.992188 162.789062 184.570312 161.585938 185.644531 C 160.5 186.863281 158.933594 187.453125 157.367188 187.453125 Z M 157.367188 187.453125 " fill-opacity="1" fill-rule="nonzero"/><path fill="#592e83" d="M 151.339844 181.425781 L 163.394531 181.425781 L 163.394531 193.480469 L 151.339844 193.480469 Z M 151.339844 181.425781 " fill-opacity="1" fill-rule="nonzero"/><path fill="#592e83" d="M 157.367188 259.773438 C 155.800781 259.773438 154.230469 259.171875 153.148438 257.976562 C 151.941406 256.894531 151.339844 255.324219 151.339844 253.746094 C 151.339844 252.179688 151.941406 250.601562 153.148438 249.515625 C 155.316406 247.238281 159.414062 247.238281 161.585938 249.515625 C 162.789062 250.601562 163.394531 252.179688 163.394531 253.746094 C 163.394531 255.3125 162.789062 256.894531 161.585938 257.976562 C 160.5 259.171875 158.933594 259.773438 157.367188 259.773438 Z M 157.367188 259.773438 " fill-opacity="1" fill-rule="nonzero"/><path fill="#592e83" d="M 151.339844 241.691406 L 163.394531 241.691406 L 163.394531 253.746094 L 151.339844 253.746094 Z M 151.339844 241.691406 " fill-opacity="1" fill-rule="nonzero"/></svg>