<svg xmlns="http://www.w3.org/2000/svg" xmlns:xlink="http://www.w3.org/1999/xlink" width="500" zoomAndPan="magnify" viewBox="0 0 375 374.999991" height="500" preserveAspectRatio="xMidYMid meet" version="1.0"><defs><clipPath id="509a9e5cb9"><path d="M 22.777344 22.777344 L 352.027344 22.777344 L 352.027344 352.027344 L 22.777344 352.027344 Z M 22.777344 22.777344 " clip-rule="nonzero"/></clipPath></defs><g clip-path="url(#509a9e5cb9)"><path fill="#592e83" d="M 254.902344 37.367188 L 254.902344 37.304688 C 233.753906 27.703125 211.082031 22.839844 187.496094 22.839844 C 96.6875 22.839844 22.839844 96.6875 22.839844 187.496094 C 22.839844 212.113281 28.1875 235.757812 38.640625 257.761719 C 35.117188 260.679688 32.808594 264.992188 32.808594 269.917969 C 32.808594 278.546875 39.859375 285.597656 48.488281 285.597656 C 50.617188 285.597656 52.683594 285.113281 54.507812 284.382812 C 85.503906 326.808594 134.980469 352.15625 187.496094 352.15625 C 278.304688 352.15625 352.15625 278.304688 352.15625 187.496094 C 352.15625 160.023438 345.226562 132.792969 332.097656 108.722656 C 314.894531 77.359375 287.484375 51.953125 254.902344 37.367188 Z M 295.140625 132.367188 C 303.40625 148.414062 307.90625 166.285156 308.332031 184.457031 L 276.847656 184.457031 C 276.421875 171.574219 273.199219 158.929688 267.425781 147.441406 Z M 250.894531 290.339844 C 232.71875 301.644531 211.992188 307.785156 190.535156 308.332031 L 190.535156 276.785156 C 237.460938 275.207031 275.207031 237.460938 276.785156 190.535156 L 308.332031 190.535156 C 307.542969 220.746094 295.75 249.070312 274.78125 270.949219 C 272.042969 268.398438 268.398438 266.878906 264.386719 266.878906 C 255.753906 266.878906 248.703125 273.867188 248.703125 282.558594 C 248.703125 285.417969 249.496094 288.03125 250.894531 290.339844 Z M 190.535156 270.707031 L 190.535156 233.933594 C 213.816406 232.476562 232.476562 213.816406 233.933594 190.535156 L 270.707031 190.535156 C 269.128906 234.117188 234.117188 269.128906 190.535156 270.707031 Z M 262.136719 150.359375 C 267.425781 160.875 270.28125 172.605469 270.707031 184.457031 L 233.933594 184.457031 C 233.570312 178.683594 232.109375 173.09375 229.742188 167.925781 Z M 190.535156 28.976562 C 211.140625 29.402344 230.957031 33.597656 249.617188 41.621094 L 236.667969 70.492188 C 222.019531 64.230469 206.582031 60.886719 190.535156 60.523438 Z M 190.535156 66.664062 C 205.671875 67.089844 220.378906 70.128906 234.175781 75.960938 L 221.292969 104.773438 C 211.507812 100.761719 201.234375 98.511719 190.535156 98.207031 Z M 190.535156 104.226562 C 200.382812 104.589844 209.863281 106.535156 218.859375 110.242188 L 203.726562 143.855469 C 199.53125 142.277344 195.09375 141.304688 190.535156 141.058594 Z M 184.457031 28.976562 L 184.457031 60.585938 C 158.6875 61.191406 134.128906 69.457031 113.160156 84.65625 C 110.425781 82.40625 107.023438 81.007812 103.191406 81.007812 C 94.5625 81.007812 87.511719 87.996094 87.511719 96.6875 C 87.511719 100.03125 88.605469 103.132812 90.429688 105.746094 C 71.828125 127.871094 61.3125 155.585938 60.585938 184.457031 L 28.976562 184.457031 C 30.621094 99.425781 99.425781 30.621094 184.457031 28.976562 Z M 98.207031 184.457031 L 66.664062 184.457031 C 67.390625 157.167969 77.300781 130.910156 94.867188 109.878906 C 97.296875 111.398438 100.152344 112.308594 103.191406 112.308594 C 111.824219 112.308594 118.875 105.320312 118.875 96.6875 C 118.875 94.015625 118.144531 91.582031 116.992188 89.394531 C 136.867188 75.050781 160.085938 67.269531 184.457031 66.664062 L 184.457031 98.207031 C 137.535156 99.789062 99.789062 137.535156 98.207031 184.457031 Z M 184.457031 104.285156 L 184.457031 141.058594 C 161.179688 142.519531 142.519531 161.179688 141.058594 184.457031 L 104.285156 184.457031 C 105.867188 140.878906 140.878906 105.867188 184.457031 104.285156 Z M 184.457031 345.957031 C 135.101562 345.042969 88.847656 320.914062 59.550781 280.980469 C 62.410156 278.121094 64.171875 274.234375 64.171875 269.917969 C 64.171875 261.226562 57.121094 254.234375 48.488281 254.234375 C 46.910156 254.234375 45.449219 254.539062 44.050781 254.964844 C 34.449219 234.726562 29.402344 213.085938 28.976562 190.535156 L 60.644531 190.535156 C 62.226562 258.125 116.867188 312.769531 184.457031 314.347656 Z M 184.457031 308.269531 C 120.210938 306.691406 68.304688 254.78125 66.722656 190.535156 L 98.148438 190.535156 C 98.695312 207.25 103.800781 223.175781 113.101562 237.035156 C 110.363281 239.832031 108.722656 243.660156 108.722656 247.851562 C 108.722656 256.484375 115.714844 263.472656 124.34375 263.472656 C 128.355469 263.472656 131.941406 261.953125 134.679688 259.523438 C 149.203125 270.28125 166.285156 276.238281 184.457031 276.847656 Z M 184.457031 270.769531 C 167.621094 270.160156 151.816406 264.691406 138.386719 254.722656 C 139.417969 252.65625 140.027344 250.34375 140.027344 247.851562 C 140.027344 239.160156 133.035156 232.171875 124.34375 232.171875 C 122.097656 232.171875 119.96875 232.65625 118.023438 233.507812 C 109.515625 220.746094 104.773438 205.976562 104.226562 190.535156 L 141.058594 190.535156 C 142.519531 213.816406 161.179688 232.476562 184.457031 233.933594 Z M 146.957031 187.496094 C 146.957031 165.128906 165.128906 146.957031 187.496094 146.957031 C 192.300781 146.957031 196.917969 147.746094 201.292969 149.328125 L 184.703125 186.222656 C 184.214844 187.4375 184.457031 188.835938 185.429688 189.746094 C 185.855469 190.109375 186.402344 190.355469 186.949219 190.414062 C 187.070312 190.476562 187.132812 190.476562 187.253906 190.476562 C 187.316406 190.476562 187.4375 190.535156 187.496094 190.535156 C 187.984375 190.535156 188.46875 190.414062 188.957031 190.171875 L 224.453125 170.84375 C 226.824219 176.007812 228.039062 181.722656 228.039062 187.496094 C 228.039062 209.863281 209.863281 228.039062 187.496094 228.039062 C 165.128906 228.039062 146.957031 209.863281 146.957031 187.496094 Z M 190.535156 346.015625 L 190.535156 314.410156 C 213.449219 313.863281 235.636719 307.175781 254.964844 295.019531 C 257.578125 296.964844 260.800781 298.179688 264.386719 298.179688 C 273.015625 298.179688 280.066406 291.191406 280.066406 282.558594 C 280.066406 280.128906 279.460938 277.878906 278.488281 275.875 C 300.976562 252.777344 313.621094 222.691406 314.410156 190.535156 L 346.015625 190.535156 C 344.375 275.570312 275.570312 344.375 190.535156 346.015625 Z M 314.410156 184.457031 C 313.984375 165.3125 309.121094 146.410156 300.367188 129.449219 L 328.207031 114.316406 C 339.453125 135.953125 345.53125 160.085938 345.957031 184.457031 Z M 314.410156 184.457031 " fill-opacity="1" fill-rule="nonzero"/></g></svg>